<mxfile host="app.diagrams.net" agent="Mozilla/5.0 (Windows NT 10.0; Win64; x64) AppleWebKit/537.36 (KHTML, like Gecko) Chrome/133.0.0.0 Safari/537.36" version="26.0.3">
  <diagram name="第 1 页" id="uJ18G1ZMSZO0c8KvisUK">
    <mxGraphModel dx="607" dy="738" grid="1" gridSize="10" guides="1" tooltips="1" connect="1" arrows="1" fold="1" page="1" pageScale="1" pageWidth="827" pageHeight="1169" math="0" shadow="0">
      <root>
        <mxCell id="0" />
        <mxCell id="1" parent="0" />
        <mxCell id="3Z__f5ttQTV5sjtYZmIr-1" style="edgeStyle=orthogonalEdgeStyle;rounded=0;orthogonalLoop=1;jettySize=auto;html=1;exitX=0;exitY=0.5;exitDx=0;exitDy=0;entryX=0;entryY=0.5;entryDx=0;entryDy=0;" parent="1" edge="1">
          <mxGeometry relative="1" as="geometry">
            <mxPoint x="342.25" y="894.5" as="targetPoint" />
          </mxGeometry>
        </mxCell>
        <mxCell id="3Z__f5ttQTV5sjtYZmIr-2" value="" style="ellipse;html=1;shape=startState;fillColor=#000000;strokeColor=#ff0000;direction=west;" parent="1" vertex="1">
          <mxGeometry x="943" y="155" width="30" height="30" as="geometry" />
        </mxCell>
        <mxCell id="3Z__f5ttQTV5sjtYZmIr-3" value="" style="edgeStyle=orthogonalEdgeStyle;html=1;verticalAlign=bottom;endArrow=open;endSize=8;strokeColor=#ff0000;rounded=0;" parent="1" source="3Z__f5ttQTV5sjtYZmIr-2" target="3Z__f5ttQTV5sjtYZmIr-33" edge="1">
          <mxGeometry relative="1" as="geometry">
            <mxPoint x="1116" y="145" as="targetPoint" />
          </mxGeometry>
        </mxCell>
        <mxCell id="3Z__f5ttQTV5sjtYZmIr-4" value="System" style="swimlane;whiteSpace=wrap;html=1;" parent="1" vertex="1">
          <mxGeometry x="1640" y="23" width="646" height="1090" as="geometry" />
        </mxCell>
        <mxCell id="3Z__f5ttQTV5sjtYZmIr-5" style="edgeStyle=orthogonalEdgeStyle;rounded=0;orthogonalLoop=1;jettySize=auto;html=1;exitX=1;exitY=0.5;exitDx=0;exitDy=0;entryX=1;entryY=0.5;entryDx=0;entryDy=0;dashed=1;" parent="3Z__f5ttQTV5sjtYZmIr-4" source="3Z__f5ttQTV5sjtYZmIr-6" target="3Z__f5ttQTV5sjtYZmIr-25" edge="1">
          <mxGeometry relative="1" as="geometry">
            <Array as="points">
              <mxPoint x="593" y="211" />
              <mxPoint x="593" y="1020" />
            </Array>
          </mxGeometry>
        </mxCell>
        <mxCell id="3Z__f5ttQTV5sjtYZmIr-6" value="Verify login information" style="shape=rect;html=1;rounded=1;whiteSpace=wrap;align=center;" parent="3Z__f5ttQTV5sjtYZmIr-4" vertex="1">
          <mxGeometry x="177" y="188" width="110" height="46" as="geometry" />
        </mxCell>
        <mxCell id="3Z__f5ttQTV5sjtYZmIr-7" style="edgeStyle=orthogonalEdgeStyle;rounded=0;orthogonalLoop=1;jettySize=auto;html=1;exitX=1;exitY=0.5;exitDx=0;exitDy=0;entryX=1;entryY=0.5;entryDx=0;entryDy=0;dashed=1;" parent="3Z__f5ttQTV5sjtYZmIr-4" source="3Z__f5ttQTV5sjtYZmIr-8" target="3Z__f5ttQTV5sjtYZmIr-25" edge="1">
          <mxGeometry relative="1" as="geometry">
            <Array as="points">
              <mxPoint x="593" y="89" />
              <mxPoint x="593" y="1020" />
            </Array>
          </mxGeometry>
        </mxCell>
        <mxCell id="3Z__f5ttQTV5sjtYZmIr-8" value="&lt;font face=&quot;Helvetica&quot;&gt;&lt;span style=&quot;color: rgb(14, 14, 14); text-align: start; background-color: initial;&quot;&gt;process registration&lt;/span&gt;&amp;nbsp;information&lt;/font&gt;" style="shape=rect;html=1;rounded=1;whiteSpace=wrap;align=center;" parent="3Z__f5ttQTV5sjtYZmIr-4" vertex="1">
          <mxGeometry x="164" y="66" width="154" height="46" as="geometry" />
        </mxCell>
        <mxCell id="3Z__f5ttQTV5sjtYZmIr-9" value="&lt;p style=&quot;margin: 0px; font-variant-numeric: normal; font-variant-east-asian: normal; font-variant-alternates: normal; font-size-adjust: none; font-kerning: auto; font-optical-sizing: auto; font-feature-settings: normal; font-variation-settings: normal; font-variant-position: normal; font-variant-emoji: normal; font-stretch: normal; line-height: normal; color: rgb(14, 14, 14); text-align: start;&quot; class=&quot;p1&quot;&gt;&lt;font&gt;Process Payment&lt;/font&gt;&lt;/p&gt;" style="rounded=1;whiteSpace=wrap;html=1;fontStyle=0;align=center;fontFamily=Helvetica;" parent="3Z__f5ttQTV5sjtYZmIr-4" vertex="1">
          <mxGeometry x="69.38" y="533" width="111.5" height="44" as="geometry" />
        </mxCell>
        <mxCell id="3Z__f5ttQTV5sjtYZmIr-10" style="edgeStyle=orthogonalEdgeStyle;rounded=0;orthogonalLoop=1;jettySize=auto;html=1;exitX=1;exitY=0.5;exitDx=0;exitDy=0;entryX=0;entryY=0.5;entryDx=0;entryDy=0;" parent="3Z__f5ttQTV5sjtYZmIr-4" source="3Z__f5ttQTV5sjtYZmIr-12" target="3Z__f5ttQTV5sjtYZmIr-20" edge="1">
          <mxGeometry relative="1" as="geometry" />
        </mxCell>
        <mxCell id="3Z__f5ttQTV5sjtYZmIr-11" style="edgeStyle=orthogonalEdgeStyle;rounded=0;orthogonalLoop=1;jettySize=auto;html=1;exitX=0.5;exitY=1;exitDx=0;exitDy=0;entryX=0.5;entryY=0;entryDx=0;entryDy=0;" parent="3Z__f5ttQTV5sjtYZmIr-4" source="3Z__f5ttQTV5sjtYZmIr-12" target="3Z__f5ttQTV5sjtYZmIr-29" edge="1">
          <mxGeometry relative="1" as="geometry" />
        </mxCell>
        <mxCell id="3Z__f5ttQTV5sjtYZmIr-12" value="&lt;p style=&quot;margin: 0px; font-variant-numeric: normal; font-variant-east-asian: normal; font-variant-alternates: normal; font-size-adjust: none; font-kerning: auto; font-optical-sizing: auto; font-feature-settings: normal; font-variation-settings: normal; font-variant-position: normal; font-variant-emoji: normal; font-stretch: normal; line-height: normal; color: rgb(14, 14, 14); text-align: start;&quot; class=&quot;p1&quot;&gt;&lt;font&gt;Create Itinerary&lt;/font&gt;&lt;/p&gt;" style="rounded=1;whiteSpace=wrap;html=1;fontStyle=0;align=center;fontFamily=Helvetica;" parent="3Z__f5ttQTV5sjtYZmIr-4" vertex="1">
          <mxGeometry x="54.00000000000001" y="717" width="142.25" height="39" as="geometry" />
        </mxCell>
        <mxCell id="3Z__f5ttQTV5sjtYZmIr-13" value="Send Confirmation&lt;div&gt;&amp;nbsp;SMS/Email&lt;/div&gt;" style="text;html=1;align=center;verticalAlign=middle;resizable=0;points=[];autosize=1;strokeColor=none;fillColor=none;" parent="3Z__f5ttQTV5sjtYZmIr-4" vertex="1">
          <mxGeometry x="182.5" y="748" width="117" height="41" as="geometry" />
        </mxCell>
        <mxCell id="3Z__f5ttQTV5sjtYZmIr-14" style="edgeStyle=orthogonalEdgeStyle;rounded=0;orthogonalLoop=1;jettySize=auto;html=1;exitX=0.5;exitY=1;exitDx=0;exitDy=0;exitPerimeter=0;" parent="3Z__f5ttQTV5sjtYZmIr-4" source="3Z__f5ttQTV5sjtYZmIr-16" target="3Z__f5ttQTV5sjtYZmIr-12" edge="1">
          <mxGeometry relative="1" as="geometry" />
        </mxCell>
        <mxCell id="3Z__f5ttQTV5sjtYZmIr-15" style="edgeStyle=orthogonalEdgeStyle;rounded=0;orthogonalLoop=1;jettySize=auto;html=1;exitX=1;exitY=0.5;exitDx=0;exitDy=0;exitPerimeter=0;entryX=1;entryY=0.5;entryDx=0;entryDy=0;dashed=1;" parent="3Z__f5ttQTV5sjtYZmIr-4" source="3Z__f5ttQTV5sjtYZmIr-16" target="3Z__f5ttQTV5sjtYZmIr-25" edge="1">
          <mxGeometry relative="1" as="geometry">
            <Array as="points">
              <mxPoint x="494" y="652" />
              <mxPoint x="494" y="1020" />
            </Array>
          </mxGeometry>
        </mxCell>
        <mxCell id="3Z__f5ttQTV5sjtYZmIr-16" value="" style="strokeWidth=2;html=1;shape=mxgraph.flowchart.decision;whiteSpace=wrap;" parent="3Z__f5ttQTV5sjtYZmIr-4" vertex="1">
          <mxGeometry x="102.63" y="626" width="45" height="52" as="geometry" />
        </mxCell>
        <mxCell id="3Z__f5ttQTV5sjtYZmIr-17" style="edgeStyle=orthogonalEdgeStyle;rounded=0;orthogonalLoop=1;jettySize=auto;html=1;exitX=0.5;exitY=1;exitDx=0;exitDy=0;entryX=0.5;entryY=0;entryDx=0;entryDy=0;entryPerimeter=0;" parent="3Z__f5ttQTV5sjtYZmIr-4" source="3Z__f5ttQTV5sjtYZmIr-9" target="3Z__f5ttQTV5sjtYZmIr-16" edge="1">
          <mxGeometry relative="1" as="geometry" />
        </mxCell>
        <mxCell id="3Z__f5ttQTV5sjtYZmIr-18" value="yes" style="text;html=1;align=center;verticalAlign=middle;resizable=0;points=[];autosize=1;strokeColor=none;fillColor=none;" parent="3Z__f5ttQTV5sjtYZmIr-4" vertex="1">
          <mxGeometry x="123" y="681" width="37" height="26" as="geometry" />
        </mxCell>
        <mxCell id="3Z__f5ttQTV5sjtYZmIr-19" style="edgeStyle=orthogonalEdgeStyle;rounded=0;orthogonalLoop=1;jettySize=auto;html=1;exitX=0.5;exitY=0;exitDx=0;exitDy=0;entryX=0.5;entryY=1;entryDx=0;entryDy=0;" parent="3Z__f5ttQTV5sjtYZmIr-4" source="3Z__f5ttQTV5sjtYZmIr-20" target="3Z__f5ttQTV5sjtYZmIr-28" edge="1">
          <mxGeometry relative="1" as="geometry" />
        </mxCell>
        <mxCell id="3Z__f5ttQTV5sjtYZmIr-20" value="&lt;p style=&quot;margin: 0px; font-variant-numeric: normal; font-variant-east-asian: normal; font-variant-alternates: normal; font-size-adjust: none; font-kerning: auto; font-optical-sizing: auto; font-feature-settings: normal; font-variation-settings: normal; font-variant-position: normal; font-variant-emoji: normal; font-stretch: normal; line-height: normal; color: rgb(14, 14, 14); text-align: start;&quot; class=&quot;p1&quot;&gt;&lt;font face=&quot;Helvetica&quot;&gt;Send Itinerary Update Notification&lt;/font&gt;&lt;/p&gt;" style="rounded=1;whiteSpace=wrap;html=1;fontStyle=0;align=center;fontFamily=Helvetica;" parent="3Z__f5ttQTV5sjtYZmIr-4" vertex="1">
          <mxGeometry x="292" y="713" width="189" height="47" as="geometry" />
        </mxCell>
        <mxCell id="3Z__f5ttQTV5sjtYZmIr-21" value="Verify card information" style="text;html=1;align=center;verticalAlign=middle;resizable=0;points=[];autosize=1;strokeColor=none;fillColor=none;" parent="3Z__f5ttQTV5sjtYZmIr-4" vertex="1">
          <mxGeometry x="123" y="593" width="137" height="26" as="geometry" />
        </mxCell>
        <mxCell id="3Z__f5ttQTV5sjtYZmIr-22" style="edgeStyle=orthogonalEdgeStyle;rounded=0;orthogonalLoop=1;jettySize=auto;html=1;exitX=1;exitY=0.5;exitDx=0;exitDy=0;entryX=0.5;entryY=1;entryDx=0;entryDy=0;dashed=1;" parent="3Z__f5ttQTV5sjtYZmIr-4" source="3Z__f5ttQTV5sjtYZmIr-23" target="3Z__f5ttQTV5sjtYZmIr-20" edge="1">
          <mxGeometry relative="1" as="geometry" />
        </mxCell>
        <mxCell id="3Z__f5ttQTV5sjtYZmIr-23" value="&lt;p style=&quot;margin: 0px; font-variant-numeric: normal; font-variant-east-asian: normal; font-variant-alternates: normal; font-size-adjust: none; font-kerning: auto; font-optical-sizing: auto; font-feature-settings: normal; font-variation-settings: normal; font-variant-position: normal; font-variant-emoji: normal; font-stretch: normal; line-height: normal; color: rgb(14, 14, 14);&quot; class=&quot;p1&quot;&gt;&lt;font face=&quot;Helvetica&quot;&gt;Confirm Itinerary Changes&lt;/font&gt;&lt;/p&gt;" style="rounded=1;whiteSpace=wrap;html=1;fontStyle=0;align=center;fontFamily=Helvetica;" parent="3Z__f5ttQTV5sjtYZmIr-4" vertex="1">
          <mxGeometry x="141" y="873" width="97" height="44" as="geometry" />
        </mxCell>
        <mxCell id="3Z__f5ttQTV5sjtYZmIr-24" value="Send itinerary update" style="text;html=1;align=center;verticalAlign=middle;resizable=0;points=[];autosize=1;strokeColor=none;fillColor=none;" parent="3Z__f5ttQTV5sjtYZmIr-4" vertex="1">
          <mxGeometry x="254" y="867" width="132" height="26" as="geometry" />
        </mxCell>
        <mxCell id="3Z__f5ttQTV5sjtYZmIr-25" value="&lt;p style=&quot;margin: 0px; font-variant-numeric: normal; font-variant-east-asian: normal; font-variant-alternates: normal; font-size-adjust: none; font-kerning: auto; font-optical-sizing: auto; font-feature-settings: normal; font-variation-settings: normal; font-variant-position: normal; font-variant-emoji: normal; font-stretch: normal; line-height: normal; color: rgb(14, 14, 14); text-align: start;&quot; class=&quot;p1&quot;&gt;&lt;font face=&quot;Helvetica&quot;&gt;Access Control&lt;/font&gt;&lt;/p&gt;" style="rounded=1;whiteSpace=wrap;html=1;fontStyle=0;align=center;fontFamily=Helvetica;" parent="3Z__f5ttQTV5sjtYZmIr-4" vertex="1">
          <mxGeometry x="136" y="998" width="97" height="44" as="geometry" />
        </mxCell>
        <mxCell id="3Z__f5ttQTV5sjtYZmIr-26" value="&lt;p style=&quot;margin: 0px; font-variant-numeric: normal; font-variant-east-asian: normal; font-variant-alternates: normal; font-size-adjust: none; font-kerning: auto; font-optical-sizing: auto; font-feature-settings: normal; font-variation-settings: normal; font-variant-position: normal; font-variant-emoji: normal; font-stretch: normal; line-height: normal; color: rgb(14, 14, 14); text-align: start; text-wrap-mode: wrap;&quot; class=&quot;p1&quot;&gt;&lt;font face=&quot;Helvetica&quot;&gt;View Personal Information&lt;/font&gt;&lt;/p&gt;" style="text;html=1;align=center;verticalAlign=middle;resizable=0;points=[];autosize=1;strokeColor=none;fillColor=none;" parent="3Z__f5ttQTV5sjtYZmIr-4" vertex="1">
          <mxGeometry x="488" y="404" width="158" height="26" as="geometry" />
        </mxCell>
        <mxCell id="3Z__f5ttQTV5sjtYZmIr-27" value="&lt;p style=&quot;margin: 0px; font-variant-numeric: normal; font-variant-east-asian: normal; font-variant-alternates: normal; font-size-adjust: none; font-kerning: auto; font-optical-sizing: auto; font-feature-settings: normal; font-variation-settings: normal; font-variant-position: normal; font-variant-emoji: normal; font-stretch: normal; line-height: normal; color: rgb(14, 14, 14); text-align: start; text-wrap-mode: wrap;&quot; class=&quot;p1&quot;&gt;&lt;font face=&quot;Helvetica&quot;&gt;View Booking Information&lt;/font&gt;&lt;/p&gt;" style="text;html=1;align=center;verticalAlign=middle;resizable=0;points=[];autosize=1;strokeColor=none;fillColor=none;" parent="3Z__f5ttQTV5sjtYZmIr-4" vertex="1">
          <mxGeometry x="384" y="810" width="154" height="26" as="geometry" />
        </mxCell>
        <mxCell id="3Z__f5ttQTV5sjtYZmIr-28" value="" style="ellipse;html=1;shape=endState;fillColor=#000000;strokeColor=#ff0000;" parent="3Z__f5ttQTV5sjtYZmIr-4" vertex="1">
          <mxGeometry x="375" y="661" width="30" height="30" as="geometry" />
        </mxCell>
        <mxCell id="3Z__f5ttQTV5sjtYZmIr-29" value="&lt;p style=&quot;margin: 0px; font-variant-numeric: normal; font-variant-east-asian: normal; font-variant-alternates: normal; font-size-adjust: none; font-kerning: auto; font-optical-sizing: auto; font-feature-settings: normal; font-variation-settings: normal; font-variant-position: normal; font-variant-emoji: normal; font-stretch: normal; line-height: normal; color: rgb(14, 14, 14); text-align: start;&quot; class=&quot;p1&quot;&gt;&lt;font&gt;Create Invoice&lt;/font&gt;&lt;/p&gt;" style="rounded=1;whiteSpace=wrap;html=1;fontStyle=0;align=center;fontFamily=Helvetica;" parent="3Z__f5ttQTV5sjtYZmIr-4" vertex="1">
          <mxGeometry x="54.00999999999999" y="799" width="142.25" height="39" as="geometry" />
        </mxCell>
        <mxCell id="3Z__f5ttQTV5sjtYZmIr-30" value="Traveller" style="swimlane;whiteSpace=wrap;html=1;" parent="1" vertex="1">
          <mxGeometry x="997" y="24" width="544" height="1087" as="geometry" />
        </mxCell>
        <mxCell id="3Z__f5ttQTV5sjtYZmIr-31" style="edgeStyle=orthogonalEdgeStyle;rounded=0;orthogonalLoop=1;jettySize=auto;html=1;exitX=0.5;exitY=1;exitDx=0;exitDy=0;exitPerimeter=0;entryX=0;entryY=0.5;entryDx=0;entryDy=0;" parent="3Z__f5ttQTV5sjtYZmIr-30" source="3Z__f5ttQTV5sjtYZmIr-33" target="3Z__f5ttQTV5sjtYZmIr-37" edge="1">
          <mxGeometry relative="1" as="geometry" />
        </mxCell>
        <mxCell id="3Z__f5ttQTV5sjtYZmIr-32" style="edgeStyle=orthogonalEdgeStyle;rounded=0;orthogonalLoop=1;jettySize=auto;html=1;exitX=0.5;exitY=0;exitDx=0;exitDy=0;exitPerimeter=0;entryX=0;entryY=0.5;entryDx=0;entryDy=0;" parent="3Z__f5ttQTV5sjtYZmIr-30" source="3Z__f5ttQTV5sjtYZmIr-33" target="3Z__f5ttQTV5sjtYZmIr-35" edge="1">
          <mxGeometry relative="1" as="geometry" />
        </mxCell>
        <mxCell id="3Z__f5ttQTV5sjtYZmIr-33" value="" style="strokeWidth=2;html=1;shape=mxgraph.flowchart.decision;whiteSpace=wrap;" parent="3Z__f5ttQTV5sjtYZmIr-30" vertex="1">
          <mxGeometry x="186" y="120" width="45" height="52" as="geometry" />
        </mxCell>
        <mxCell id="3Z__f5ttQTV5sjtYZmIr-34" style="edgeStyle=orthogonalEdgeStyle;rounded=0;orthogonalLoop=1;jettySize=auto;html=1;exitX=0.5;exitY=1;exitDx=0;exitDy=0;dashed=1;" parent="3Z__f5ttQTV5sjtYZmIr-30" source="3Z__f5ttQTV5sjtYZmIr-35" target="3Z__f5ttQTV5sjtYZmIr-37" edge="1">
          <mxGeometry relative="1" as="geometry" />
        </mxCell>
        <mxCell id="3Z__f5ttQTV5sjtYZmIr-35" value="Register" style="shape=rect;html=1;rounded=1;whiteSpace=wrap;align=center;" parent="3Z__f5ttQTV5sjtYZmIr-30" vertex="1">
          <mxGeometry x="347.5" y="65" width="110" height="46" as="geometry" />
        </mxCell>
        <mxCell id="3Z__f5ttQTV5sjtYZmIr-36" style="edgeStyle=orthogonalEdgeStyle;rounded=0;orthogonalLoop=1;jettySize=auto;html=1;exitX=0.5;exitY=1;exitDx=0;exitDy=0;entryX=0.5;entryY=0;entryDx=0;entryDy=0;" parent="3Z__f5ttQTV5sjtYZmIr-30" source="3Z__f5ttQTV5sjtYZmIr-37" target="3Z__f5ttQTV5sjtYZmIr-43" edge="1">
          <mxGeometry relative="1" as="geometry" />
        </mxCell>
        <mxCell id="3Z__f5ttQTV5sjtYZmIr-37" value="Log in" style="shape=rect;html=1;rounded=1;whiteSpace=wrap;align=center;" parent="3Z__f5ttQTV5sjtYZmIr-30" vertex="1">
          <mxGeometry x="346" y="189" width="113" height="44" as="geometry" />
        </mxCell>
        <mxCell id="3Z__f5ttQTV5sjtYZmIr-38" value="User information" style="text;html=1;align=center;verticalAlign=middle;resizable=0;points=[];autosize=1;strokeColor=none;fillColor=none;" parent="3Z__f5ttQTV5sjtYZmIr-30" vertex="1">
          <mxGeometry x="384" y="137" width="106" height="26" as="geometry" />
        </mxCell>
        <mxCell id="3Z__f5ttQTV5sjtYZmIr-39" value="yes" style="text;html=1;align=center;verticalAlign=middle;resizable=0;points=[];autosize=1;strokeColor=none;fillColor=none;" parent="3Z__f5ttQTV5sjtYZmIr-30" vertex="1">
          <mxGeometry x="247" y="210" width="37" height="26" as="geometry" />
        </mxCell>
        <mxCell id="3Z__f5ttQTV5sjtYZmIr-40" value="no" style="text;html=1;align=center;verticalAlign=middle;resizable=0;points=[];autosize=1;strokeColor=none;fillColor=none;" parent="3Z__f5ttQTV5sjtYZmIr-30" vertex="1">
          <mxGeometry x="254" y="65" width="31" height="26" as="geometry" />
        </mxCell>
        <mxCell id="3Z__f5ttQTV5sjtYZmIr-41" value="&amp;nbsp;if have account" style="text;html=1;align=center;verticalAlign=middle;resizable=0;points=[];autosize=1;strokeColor=none;fillColor=none;" parent="3Z__f5ttQTV5sjtYZmIr-30" vertex="1">
          <mxGeometry x="24" y="117" width="102" height="26" as="geometry" />
        </mxCell>
        <mxCell id="3Z__f5ttQTV5sjtYZmIr-42" style="edgeStyle=orthogonalEdgeStyle;rounded=0;orthogonalLoop=1;jettySize=auto;html=1;exitX=0;exitY=0.5;exitDx=0;exitDy=0;entryX=1;entryY=0.5;entryDx=0;entryDy=0;" parent="3Z__f5ttQTV5sjtYZmIr-30" source="3Z__f5ttQTV5sjtYZmIr-43" target="3Z__f5ttQTV5sjtYZmIr-46" edge="1">
          <mxGeometry relative="1" as="geometry" />
        </mxCell>
        <mxCell id="3Z__f5ttQTV5sjtYZmIr-43" value="&lt;font face=&quot;Helvetica&quot;&gt;Search&amp;nbsp;&lt;span style=&quot;color: rgb(14, 14, 14); text-align: start; background-color: initial;&quot;&gt;Flight/Hotel&lt;/span&gt;&lt;/font&gt;" style="shape=rect;html=1;rounded=1;whiteSpace=wrap;align=center;" parent="3Z__f5ttQTV5sjtYZmIr-30" vertex="1">
          <mxGeometry x="346" y="306" width="113" height="44" as="geometry" />
        </mxCell>
        <mxCell id="3Z__f5ttQTV5sjtYZmIr-44" value="Login success" style="text;html=1;align=center;verticalAlign=middle;resizable=0;points=[];autosize=1;strokeColor=none;fillColor=none;" parent="3Z__f5ttQTV5sjtYZmIr-30" vertex="1">
          <mxGeometry x="415" y="270" width="94" height="26" as="geometry" />
        </mxCell>
        <mxCell id="3Z__f5ttQTV5sjtYZmIr-45" style="edgeStyle=orthogonalEdgeStyle;rounded=0;orthogonalLoop=1;jettySize=auto;html=1;exitX=0.5;exitY=1;exitDx=0;exitDy=0;entryX=0.5;entryY=0;entryDx=0;entryDy=0;" parent="3Z__f5ttQTV5sjtYZmIr-30" source="3Z__f5ttQTV5sjtYZmIr-46" target="3Z__f5ttQTV5sjtYZmIr-49" edge="1">
          <mxGeometry relative="1" as="geometry" />
        </mxCell>
        <mxCell id="3Z__f5ttQTV5sjtYZmIr-46" value="&lt;p style=&quot;margin: 0px; font-variant-numeric: normal; font-variant-east-asian: normal; font-variant-alternates: normal; font-size-adjust: none; font-kerning: auto; font-optical-sizing: auto; font-feature-settings: normal; font-variation-settings: normal; font-variant-position: normal; font-variant-emoji: normal; font-stretch: normal; line-height: normal; color: rgb(14, 14, 14); text-align: start;&quot; class=&quot;p1&quot;&gt;&lt;font face=&quot;Helvetica&quot;&gt;Select Flight/Hotel&lt;/font&gt;&lt;/p&gt;" style="shape=rect;html=1;rounded=1;whiteSpace=wrap;align=center;" parent="3Z__f5ttQTV5sjtYZmIr-30" vertex="1">
          <mxGeometry x="48" y="306" width="129" height="44" as="geometry" />
        </mxCell>
        <mxCell id="3Z__f5ttQTV5sjtYZmIr-47" style="edgeStyle=orthogonalEdgeStyle;rounded=0;orthogonalLoop=1;jettySize=auto;html=1;exitX=0.5;exitY=1;exitDx=0;exitDy=0;entryX=0.5;entryY=0;entryDx=0;entryDy=0;" parent="3Z__f5ttQTV5sjtYZmIr-30" source="3Z__f5ttQTV5sjtYZmIr-48" target="3Z__f5ttQTV5sjtYZmIr-52" edge="1">
          <mxGeometry relative="1" as="geometry" />
        </mxCell>
        <mxCell id="3Z__f5ttQTV5sjtYZmIr-48" value="&lt;p style=&quot;margin: 0px; font-variant-numeric: normal; font-variant-east-asian: normal; font-variant-alternates: normal; font-size-adjust: none; font-kerning: auto; font-optical-sizing: auto; font-feature-settings: normal; font-variation-settings: normal; font-variant-position: normal; font-variant-emoji: normal; font-stretch: normal; line-height: normal; color: rgb(14, 14, 14); text-align: start;&quot; class=&quot;p1&quot;&gt;&lt;font&gt;Make Payment&lt;/font&gt;&lt;/p&gt;" style="rounded=1;whiteSpace=wrap;html=1;fontStyle=0;align=center;fontFamily=Helvetica;" parent="3Z__f5ttQTV5sjtYZmIr-30" vertex="1">
          <mxGeometry x="356" y="425" width="97" height="44" as="geometry" />
        </mxCell>
        <mxCell id="3Z__f5ttQTV5sjtYZmIr-49" value="&lt;p style=&quot;margin: 0px; font-variant-numeric: normal; font-variant-east-asian: normal; font-variant-alternates: normal; font-size-adjust: none; font-kerning: auto; font-optical-sizing: auto; font-feature-settings: normal; font-variation-settings: normal; font-variant-position: normal; font-variant-emoji: normal; font-stretch: normal; line-height: normal; color: rgb(14, 14, 14);&quot; class=&quot;p1&quot;&gt;&lt;font face=&quot;Helvetica&quot;&gt;Fill booking information&lt;/font&gt;&lt;/p&gt;" style="shape=rect;html=1;rounded=1;whiteSpace=wrap;align=center;" parent="3Z__f5ttQTV5sjtYZmIr-30" vertex="1">
          <mxGeometry x="48" y="425" width="129" height="44" as="geometry" />
        </mxCell>
        <mxCell id="3Z__f5ttQTV5sjtYZmIr-50" style="edgeStyle=orthogonalEdgeStyle;rounded=0;orthogonalLoop=1;jettySize=auto;html=1;exitX=1;exitY=0.5;exitDx=0;exitDy=0;entryX=0;entryY=0.5;entryDx=0;entryDy=0;" parent="3Z__f5ttQTV5sjtYZmIr-30" source="3Z__f5ttQTV5sjtYZmIr-49" target="3Z__f5ttQTV5sjtYZmIr-48" edge="1">
          <mxGeometry relative="1" as="geometry">
            <mxPoint x="231" y="491" as="targetPoint" />
          </mxGeometry>
        </mxCell>
        <mxCell id="3Z__f5ttQTV5sjtYZmIr-51" value="Verify booking&#39; Information" style="text;html=1;align=center;verticalAlign=middle;resizable=0;points=[];autosize=1;strokeColor=none;fillColor=none;" parent="3Z__f5ttQTV5sjtYZmIr-30" vertex="1">
          <mxGeometry x="188" y="462" width="159" height="26" as="geometry" />
        </mxCell>
        <mxCell id="3Z__f5ttQTV5sjtYZmIr-52" value="&lt;p style=&quot;margin: 0px; font-variant-numeric: normal; font-variant-east-asian: normal; font-variant-alternates: normal; font-size-adjust: none; font-kerning: auto; font-optical-sizing: auto; font-feature-settings: normal; font-variation-settings: normal; font-variant-position: normal; font-variant-emoji: normal; font-stretch: normal; line-height: normal; color: rgb(14, 14, 14); text-align: start;&quot; class=&quot;p1&quot;&gt;&lt;span style=&quot;color: rgb(0, 0, 0); text-align: center; text-wrap-mode: nowrap;&quot;&gt;input ID and PIN&lt;/span&gt;&lt;/p&gt;" style="rounded=1;whiteSpace=wrap;html=1;fontStyle=0;align=center;fontFamily=Helvetica;" parent="3Z__f5ttQTV5sjtYZmIr-30" vertex="1">
          <mxGeometry x="356" y="532" width="97" height="44" as="geometry" />
        </mxCell>
        <mxCell id="3Z__f5ttQTV5sjtYZmIr-53" value="choose fitting result" style="text;html=1;align=center;verticalAlign=middle;resizable=0;points=[];autosize=1;strokeColor=none;fillColor=none;" parent="3Z__f5ttQTV5sjtYZmIr-30" vertex="1">
          <mxGeometry x="205" y="294" width="121" height="26" as="geometry" />
        </mxCell>
        <mxCell id="3Z__f5ttQTV5sjtYZmIr-54" style="edgeStyle=orthogonalEdgeStyle;rounded=0;orthogonalLoop=1;jettySize=auto;html=1;exitX=0;exitY=0.5;exitDx=0;exitDy=0;entryX=0.5;entryY=0;entryDx=0;entryDy=0;" parent="3Z__f5ttQTV5sjtYZmIr-30" source="3Z__f5ttQTV5sjtYZmIr-56" target="3Z__f5ttQTV5sjtYZmIr-57" edge="1">
          <mxGeometry relative="1" as="geometry" />
        </mxCell>
        <mxCell id="3Z__f5ttQTV5sjtYZmIr-55" style="edgeStyle=orthogonalEdgeStyle;rounded=0;orthogonalLoop=1;jettySize=auto;html=1;exitX=0.5;exitY=0;exitDx=0;exitDy=0;entryX=0.5;entryY=1;entryDx=0;entryDy=0;" parent="3Z__f5ttQTV5sjtYZmIr-30" source="3Z__f5ttQTV5sjtYZmIr-56" target="3Z__f5ttQTV5sjtYZmIr-59" edge="1">
          <mxGeometry relative="1" as="geometry" />
        </mxCell>
        <mxCell id="3Z__f5ttQTV5sjtYZmIr-56" value="&lt;p style=&quot;margin: 0px; font-variant-numeric: normal; font-variant-east-asian: normal; font-variant-alternates: normal; font-size-adjust: none; font-kerning: auto; font-optical-sizing: auto; font-feature-settings: normal; font-variation-settings: normal; font-variant-position: normal; font-variant-emoji: normal; font-stretch: normal; line-height: normal; color: rgb(14, 14, 14);&quot; class=&quot;p1&quot;&gt;&lt;font face=&quot;Helvetica&quot;&gt;View/Modify Itinerary&lt;/font&gt;&lt;/p&gt;" style="rounded=1;whiteSpace=wrap;html=1;fontStyle=0;align=center;fontFamily=Helvetica;" parent="3Z__f5ttQTV5sjtYZmIr-30" vertex="1">
          <mxGeometry x="250" y="713.5" width="97" height="44" as="geometry" />
        </mxCell>
        <mxCell id="3Z__f5ttQTV5sjtYZmIr-57" value="&lt;p style=&quot;margin: 0px; font-variant-numeric: normal; font-variant-east-asian: normal; font-variant-alternates: normal; font-size-adjust: none; font-kerning: auto; font-optical-sizing: auto; font-feature-settings: normal; font-variation-settings: normal; font-variant-position: normal; font-variant-emoji: normal; font-stretch: normal; line-height: normal; color: rgb(14, 14, 14);&quot; class=&quot;p1&quot;&gt;&lt;font face=&quot;Helvetica&quot;&gt;Share Itinerary&lt;/font&gt;&lt;/p&gt;" style="rounded=1;whiteSpace=wrap;html=1;fontStyle=0;align=center;fontFamily=Helvetica;" parent="3Z__f5ttQTV5sjtYZmIr-30" vertex="1">
          <mxGeometry x="111" y="973" width="97" height="44" as="geometry" />
        </mxCell>
        <mxCell id="3Z__f5ttQTV5sjtYZmIr-58" value="Protecting data access" style="text;html=1;align=center;verticalAlign=middle;resizable=0;points=[];autosize=1;strokeColor=none;fillColor=none;" parent="3Z__f5ttQTV5sjtYZmIr-30" vertex="1">
          <mxGeometry x="337" y="991" width="139" height="26" as="geometry" />
        </mxCell>
        <mxCell id="3Z__f5ttQTV5sjtYZmIr-59" value="" style="ellipse;html=1;shape=endState;fillColor=#000000;strokeColor=#ff0000;" parent="3Z__f5ttQTV5sjtYZmIr-30" vertex="1">
          <mxGeometry x="284" y="634" width="30" height="30" as="geometry" />
        </mxCell>
        <mxCell id="3Z__f5ttQTV5sjtYZmIr-60" style="edgeStyle=orthogonalEdgeStyle;rounded=0;orthogonalLoop=1;jettySize=auto;html=1;exitX=1;exitY=0.5;exitDx=0;exitDy=0;entryX=0;entryY=0.5;entryDx=0;entryDy=0;dashed=1;" parent="1" source="3Z__f5ttQTV5sjtYZmIr-35" target="3Z__f5ttQTV5sjtYZmIr-8" edge="1">
          <mxGeometry relative="1" as="geometry">
            <mxPoint x="1676" y="112.99999999999989" as="targetPoint" />
            <mxPoint x="1352" y="113" as="sourcePoint" />
          </mxGeometry>
        </mxCell>
        <mxCell id="3Z__f5ttQTV5sjtYZmIr-61" style="edgeStyle=orthogonalEdgeStyle;rounded=0;orthogonalLoop=1;jettySize=auto;html=1;exitX=1;exitY=0.5;exitDx=0;exitDy=0;entryX=0;entryY=0.5;entryDx=0;entryDy=0;dashed=1;" parent="1" source="3Z__f5ttQTV5sjtYZmIr-37" target="3Z__f5ttQTV5sjtYZmIr-6" edge="1">
          <mxGeometry relative="1" as="geometry">
            <mxPoint x="1776" y="231.9999999999999" as="targetPoint" />
          </mxGeometry>
        </mxCell>
        <mxCell id="3Z__f5ttQTV5sjtYZmIr-62" value="Process details" style="text;html=1;align=center;verticalAlign=middle;resizable=0;points=[];autosize=1;strokeColor=none;fillColor=none;fontFamily=Helvetica;" parent="1" vertex="1">
          <mxGeometry x="1541" y="84" width="99" height="26" as="geometry" />
        </mxCell>
        <mxCell id="3Z__f5ttQTV5sjtYZmIr-63" value="Verify details" style="text;html=1;align=center;verticalAlign=middle;resizable=0;points=[];autosize=1;strokeColor=none;fillColor=none;fontFamily=Helvetica;" parent="1" vertex="1">
          <mxGeometry x="1551.5" y="205" width="86" height="26" as="geometry" />
        </mxCell>
        <mxCell id="3Z__f5ttQTV5sjtYZmIr-64" style="edgeStyle=orthogonalEdgeStyle;rounded=0;orthogonalLoop=1;jettySize=auto;html=1;exitX=1;exitY=0.5;exitDx=0;exitDy=0;dashed=1;" parent="1" source="3Z__f5ttQTV5sjtYZmIr-52" target="3Z__f5ttQTV5sjtYZmIr-9" edge="1">
          <mxGeometry relative="1" as="geometry" />
        </mxCell>
        <mxCell id="3Z__f5ttQTV5sjtYZmIr-65" style="edgeStyle=orthogonalEdgeStyle;rounded=0;orthogonalLoop=1;jettySize=auto;html=1;exitX=0;exitY=0.5;exitDx=0;exitDy=0;exitPerimeter=0;entryX=0.5;entryY=1;entryDx=0;entryDy=0;dashed=1;" parent="1" source="3Z__f5ttQTV5sjtYZmIr-16" target="3Z__f5ttQTV5sjtYZmIr-52" edge="1">
          <mxGeometry relative="1" as="geometry" />
        </mxCell>
        <mxCell id="3Z__f5ttQTV5sjtYZmIr-66" value="no" style="text;html=1;align=center;verticalAlign=middle;resizable=0;points=[];autosize=1;strokeColor=none;fillColor=none;" parent="1" vertex="1">
          <mxGeometry x="1582" y="650" width="31" height="26" as="geometry" />
        </mxCell>
        <mxCell id="3Z__f5ttQTV5sjtYZmIr-67" value="build payment" style="text;html=1;align=center;verticalAlign=middle;resizable=0;points=[];autosize=1;strokeColor=none;fillColor=none;" parent="1" vertex="1">
          <mxGeometry x="1547" y="546" width="93" height="26" as="geometry" />
        </mxCell>
        <mxCell id="3Z__f5ttQTV5sjtYZmIr-68" style="edgeStyle=orthogonalEdgeStyle;rounded=0;orthogonalLoop=1;jettySize=auto;html=1;exitX=0;exitY=0.5;exitDx=0;exitDy=0;entryX=1;entryY=0.5;entryDx=0;entryDy=0;" parent="1" source="3Z__f5ttQTV5sjtYZmIr-12" target="3Z__f5ttQTV5sjtYZmIr-56" edge="1">
          <mxGeometry relative="1" as="geometry" />
        </mxCell>
        <mxCell id="3Z__f5ttQTV5sjtYZmIr-69" value="&lt;span style=&quot;color: rgb(14, 14, 14); text-wrap-mode: wrap;&quot;&gt;View/Modify Itinerary&lt;/span&gt;" style="text;html=1;align=center;verticalAlign=middle;resizable=0;points=[];autosize=1;strokeColor=none;fillColor=none;" parent="1" vertex="1">
          <mxGeometry x="1525" y="729" width="129" height="26" as="geometry" />
        </mxCell>
        <mxCell id="3Z__f5ttQTV5sjtYZmIr-70" style="edgeStyle=orthogonalEdgeStyle;rounded=0;orthogonalLoop=1;jettySize=auto;html=1;exitX=0.75;exitY=1;exitDx=0;exitDy=0;entryX=0;entryY=0.5;entryDx=0;entryDy=0;dashed=1;" parent="1" source="3Z__f5ttQTV5sjtYZmIr-56" target="3Z__f5ttQTV5sjtYZmIr-23" edge="1">
          <mxGeometry relative="1" as="geometry" />
        </mxCell>
        <mxCell id="3Z__f5ttQTV5sjtYZmIr-71" value="Confirm itinerary change" style="text;html=1;align=center;verticalAlign=middle;resizable=0;points=[];autosize=1;strokeColor=none;fillColor=none;" parent="1" vertex="1">
          <mxGeometry x="1351" y="891" width="149" height="26" as="geometry" />
        </mxCell>
        <mxCell id="3Z__f5ttQTV5sjtYZmIr-72" value="Itinerary&lt;div&gt;sharing&lt;/div&gt;" style="text;html=1;align=center;verticalAlign=middle;resizable=0;points=[];autosize=1;strokeColor=none;fillColor=none;" parent="1" vertex="1">
          <mxGeometry x="1096" y="888" width="61" height="41" as="geometry" />
        </mxCell>
        <mxCell id="3Z__f5ttQTV5sjtYZmIr-73" style="edgeStyle=orthogonalEdgeStyle;rounded=0;orthogonalLoop=1;jettySize=auto;html=1;exitX=0.25;exitY=1;exitDx=0;exitDy=0;entryX=0;entryY=0.5;entryDx=0;entryDy=0;dashed=1;" parent="1" source="3Z__f5ttQTV5sjtYZmIr-56" target="3Z__f5ttQTV5sjtYZmIr-25" edge="1">
          <mxGeometry relative="1" as="geometry" />
        </mxCell>
        <mxCell id="3Z__f5ttQTV5sjtYZmIr-74" value="" style="ellipse;html=1;shape=endState;fillColor=#000000;strokeColor=#ff0000;" parent="1" vertex="1">
          <mxGeometry x="1141" y="1139" width="30" height="30" as="geometry" />
        </mxCell>
        <mxCell id="3Z__f5ttQTV5sjtYZmIr-75" style="edgeStyle=orthogonalEdgeStyle;rounded=0;orthogonalLoop=1;jettySize=auto;html=1;exitX=0.5;exitY=1;exitDx=0;exitDy=0;entryX=0.5;entryY=0;entryDx=0;entryDy=0;" parent="1" source="3Z__f5ttQTV5sjtYZmIr-57" target="3Z__f5ttQTV5sjtYZmIr-74" edge="1">
          <mxGeometry relative="1" as="geometry" />
        </mxCell>
        <mxCell id="3Z__f5ttQTV5sjtYZmIr-76" value="Payment" style="shape=umlLifeline;perimeter=lifelinePerimeter;whiteSpace=wrap;html=1;container=1;dropTarget=0;collapsible=0;recursiveResize=0;outlineConnect=0;portConstraint=eastwest;newEdgeStyle={&quot;curved&quot;:0,&quot;rounded&quot;:0};" parent="1" vertex="1">
          <mxGeometry x="3194" y="35" width="100" height="1833" as="geometry" />
        </mxCell>
        <mxCell id="3Z__f5ttQTV5sjtYZmIr-77" value="Booking" style="shape=umlLifeline;perimeter=lifelinePerimeter;whiteSpace=wrap;html=1;container=1;dropTarget=0;collapsible=0;recursiveResize=0;outlineConnect=0;portConstraint=eastwest;newEdgeStyle={&quot;curved&quot;:0,&quot;rounded&quot;:0};" parent="1" vertex="1">
          <mxGeometry x="3026" y="35" width="100" height="1821" as="geometry" />
        </mxCell>
        <mxCell id="3Z__f5ttQTV5sjtYZmIr-78" value="System" style="shape=umlLifeline;perimeter=lifelinePerimeter;whiteSpace=wrap;html=1;container=1;dropTarget=0;collapsible=0;recursiveResize=0;outlineConnect=0;portConstraint=eastwest;newEdgeStyle={&quot;curved&quot;:0,&quot;rounded&quot;:0};" parent="1" vertex="1">
          <mxGeometry x="2516" y="35" width="100" height="1816" as="geometry" />
        </mxCell>
        <mxCell id="3Z__f5ttQTV5sjtYZmIr-79" value="Flight" style="shape=umlLifeline;perimeter=lifelinePerimeter;whiteSpace=wrap;html=1;container=1;dropTarget=0;collapsible=0;recursiveResize=0;outlineConnect=0;portConstraint=eastwest;newEdgeStyle={&quot;curved&quot;:0,&quot;rounded&quot;:0};" parent="1" vertex="1">
          <mxGeometry x="2690" y="35" width="100" height="1816" as="geometry" />
        </mxCell>
        <mxCell id="3Z__f5ttQTV5sjtYZmIr-80" value="Hotel" style="shape=umlLifeline;perimeter=lifelinePerimeter;whiteSpace=wrap;html=1;container=1;dropTarget=0;collapsible=0;recursiveResize=0;outlineConnect=0;portConstraint=eastwest;newEdgeStyle={&quot;curved&quot;:0,&quot;rounded&quot;:0};fillColor=default;" parent="1" vertex="1">
          <mxGeometry x="2865" y="35" width="100" height="1824" as="geometry" />
        </mxCell>
        <mxCell id="3Z__f5ttQTV5sjtYZmIr-81" value="Traveller" style="shape=umlActor;verticalLabelPosition=bottom;verticalAlign=top;html=1;" parent="1" vertex="1">
          <mxGeometry x="2340" y="30" width="30" height="60" as="geometry" />
        </mxCell>
        <mxCell id="3Z__f5ttQTV5sjtYZmIr-82" value="" style="line;strokeWidth=1;fillColor=none;align=left;verticalAlign=middle;spacingTop=-1;spacingLeft=3;spacingRight=3;rotatable=0;labelPosition=right;points=[];portConstraint=eastwest;strokeColor=inherit;direction=south;dashed=1;" parent="1" vertex="1">
          <mxGeometry x="2351" y="112" width="8" height="1737" as="geometry" />
        </mxCell>
        <mxCell id="3Z__f5ttQTV5sjtYZmIr-83" value="" style="rounded=0;whiteSpace=wrap;html=1;" parent="1" vertex="1">
          <mxGeometry x="2347" y="145" width="17" height="1620" as="geometry" />
        </mxCell>
        <mxCell id="3Z__f5ttQTV5sjtYZmIr-84" value="" style="endArrow=blockThin;html=1;rounded=0;endFill=1;entryX=0.095;entryY=0.213;entryDx=0;entryDy=0;entryPerimeter=0;exitX=0.969;exitY=0.026;exitDx=0;exitDy=0;exitPerimeter=0;" parent="1" source="3Z__f5ttQTV5sjtYZmIr-83" target="3Z__f5ttQTV5sjtYZmIr-85" edge="1">
          <mxGeometry width="50" height="50" relative="1" as="geometry">
            <mxPoint x="2364" y="185" as="sourcePoint" />
            <mxPoint x="2556" y="189" as="targetPoint" />
          </mxGeometry>
        </mxCell>
        <mxCell id="3Z__f5ttQTV5sjtYZmIr-85" value="" style="rounded=0;whiteSpace=wrap;html=1;" parent="1" vertex="1">
          <mxGeometry x="2557.5" y="145" width="17" height="199" as="geometry" />
        </mxCell>
        <mxCell id="3Z__f5ttQTV5sjtYZmIr-86" value="register&lt;font style=&quot;background-color: initial;&quot; face=&quot;Helvetica&quot;&gt;(&lt;span style=&quot;color: rgb(14, 14, 14); background-color: initial;&quot;&gt;name, email, phone,&amp;nbsp;&lt;/span&gt;&lt;/font&gt;&lt;div&gt;&lt;span style=&quot;background-color: initial; color: rgb(14, 14, 14);&quot;&gt;passport,&amp;nbsp;&lt;/span&gt;&lt;span style=&quot;background-color: initial; color: rgb(14, 14, 14);&quot;&gt;birthDate,&amp;nbsp;&lt;/span&gt;&lt;font style=&quot;background-color: initial;&quot; face=&quot;Helvetica&quot;&gt;&lt;span style=&quot;color: rgb(14, 14, 14); background-color: initial;&quot;&gt;gender,&amp;nbsp;&lt;/span&gt;&lt;/font&gt;&lt;/div&gt;&lt;div&gt;&lt;font style=&quot;background-color: initial;&quot; face=&quot;Helvetica&quot;&gt;&lt;span style=&quot;color: rgb(14, 14, 14); background-color: initial;&quot;&gt;nationality&lt;/span&gt;&lt;/font&gt;&lt;span style=&quot;background-color: initial;&quot;&gt;)&lt;/span&gt;&lt;/div&gt;" style="text;whiteSpace=wrap;html=1;" parent="1" vertex="1">
          <mxGeometry x="2378" y="132" width="189" height="36" as="geometry" />
        </mxCell>
        <mxCell id="3Z__f5ttQTV5sjtYZmIr-87" style="edgeStyle=orthogonalEdgeStyle;rounded=0;orthogonalLoop=1;jettySize=auto;html=1;endArrow=blockThin;endFill=1;" parent="1" edge="1">
          <mxGeometry relative="1" as="geometry">
            <mxPoint x="2364" y="276" as="sourcePoint" />
            <mxPoint x="2558" y="276" as="targetPoint" />
            <Array as="points">
              <mxPoint x="2364" y="276" />
              <mxPoint x="2558" y="276" />
            </Array>
          </mxGeometry>
        </mxCell>
        <mxCell id="3Z__f5ttQTV5sjtYZmIr-88" value="login(email, password)" style="text;whiteSpace=wrap;html=1;" parent="1" vertex="1">
          <mxGeometry x="2395" y="248.0011111111112" width="148" height="36" as="geometry" />
        </mxCell>
        <mxCell id="3Z__f5ttQTV5sjtYZmIr-89" value="" style="endArrow=open;html=1;rounded=0;dashed=1;endFill=0;" parent="1" edge="1">
          <mxGeometry width="50" height="50" relative="1" as="geometry">
            <mxPoint x="2557" y="229" as="sourcePoint" />
            <mxPoint x="2365" y="229" as="targetPoint" />
          </mxGeometry>
        </mxCell>
        <mxCell id="3Z__f5ttQTV5sjtYZmIr-90" value="Confirm Registration" style="text;html=1;align=center;verticalAlign=middle;resizable=0;points=[];autosize=1;strokeColor=none;fillColor=none;" parent="1" vertex="1">
          <mxGeometry x="2395" y="205" width="127" height="26" as="geometry" />
        </mxCell>
        <mxCell id="3Z__f5ttQTV5sjtYZmIr-91" value="" style="endArrow=open;html=1;rounded=0;entryX=0.843;entryY=0.14;entryDx=0;entryDy=0;entryPerimeter=0;dashed=1;endFill=0;" parent="1" edge="1">
          <mxGeometry width="50" height="50" relative="1" as="geometry">
            <mxPoint x="2557.5" y="321" as="sourcePoint" />
            <mxPoint x="2361.5" y="321" as="targetPoint" />
          </mxGeometry>
        </mxCell>
        <mxCell id="3Z__f5ttQTV5sjtYZmIr-92" value="login status" style="text;html=1;align=center;verticalAlign=middle;resizable=0;points=[];autosize=1;strokeColor=none;fillColor=none;" parent="1" vertex="1">
          <mxGeometry x="2420" y="298" width="79" height="26" as="geometry" />
        </mxCell>
        <mxCell id="3Z__f5ttQTV5sjtYZmIr-93" style="edgeStyle=orthogonalEdgeStyle;rounded=0;orthogonalLoop=1;jettySize=auto;html=1;endArrow=block;endFill=0;entryX=0.056;entryY=0.373;entryDx=0;entryDy=0;entryPerimeter=0;" parent="1" target="3Z__f5ttQTV5sjtYZmIr-94" edge="1">
          <mxGeometry relative="1" as="geometry">
            <mxPoint x="2364" y="374" as="sourcePoint" />
            <mxPoint x="2731" y="382" as="targetPoint" />
            <Array as="points">
              <mxPoint x="2364" y="374" />
            </Array>
          </mxGeometry>
        </mxCell>
        <mxCell id="3Z__f5ttQTV5sjtYZmIr-94" value="" style="rounded=0;whiteSpace=wrap;html=1;" parent="1" vertex="1">
          <mxGeometry x="2731.5" y="348" width="17" height="70" as="geometry" />
        </mxCell>
        <mxCell id="3Z__f5ttQTV5sjtYZmIr-95" value="" style="rounded=0;whiteSpace=wrap;html=1;fillColor=default;" parent="1" vertex="1">
          <mxGeometry x="2906.5" y="431" width="17" height="59" as="geometry" />
        </mxCell>
        <mxCell id="3Z__f5ttQTV5sjtYZmIr-96" value="&lt;p style=&quot;margin: 0px; font-variant-numeric: normal; font-variant-east-asian: normal; font-variant-alternates: normal; font-size-adjust: none; font-kerning: auto; font-optical-sizing: auto; font-feature-settings: normal; font-variation-settings: normal; font-variant-position: normal; font-variant-emoji: normal; font-stretch: normal; line-height: normal; color: rgb(14, 14, 14); text-align: start; text-wrap-mode: wrap;&quot; class=&quot;p1&quot;&gt;&lt;br&gt;&lt;/p&gt;" style="text;html=1;align=center;verticalAlign=middle;resizable=0;points=[];autosize=1;strokeColor=none;fillColor=none;" parent="1" vertex="1">
          <mxGeometry x="2449.5" y="431" width="18" height="26" as="geometry" />
        </mxCell>
        <mxCell id="3Z__f5ttQTV5sjtYZmIr-97" value="searchFlight (destination, date)" style="text;html=1;align=center;verticalAlign=middle;resizable=0;points=[];autosize=1;strokeColor=none;fillColor=none;" parent="1" vertex="1">
          <mxGeometry x="2420" y="350" width="183" height="26" as="geometry" />
        </mxCell>
        <mxCell id="3Z__f5ttQTV5sjtYZmIr-98" style="edgeStyle=orthogonalEdgeStyle;rounded=0;orthogonalLoop=1;jettySize=auto;html=1;endArrow=blockThin;endFill=1;entryX=0.032;entryY=0.319;entryDx=0;entryDy=0;entryPerimeter=0;" parent="1" target="3Z__f5ttQTV5sjtYZmIr-95" edge="1">
          <mxGeometry relative="1" as="geometry">
            <mxPoint x="2365" y="449" as="sourcePoint" />
            <mxPoint x="2893" y="450" as="targetPoint" />
            <Array as="points" />
          </mxGeometry>
        </mxCell>
        <mxCell id="3Z__f5ttQTV5sjtYZmIr-99" value="searchHotels(location, checkInDate, checkOutDate, roomType)" style="text;whiteSpace=wrap;html=1;" parent="1" vertex="1">
          <mxGeometry x="2493" y="426" width="345" height="36" as="geometry" />
        </mxCell>
        <mxCell id="3Z__f5ttQTV5sjtYZmIr-100" value="" style="endArrow=open;html=1;rounded=0;dashed=1;endFill=0;" parent="1" edge="1">
          <mxGeometry width="50" height="50" relative="1" as="geometry">
            <mxPoint x="2731.5" y="398" as="sourcePoint" />
            <mxPoint x="2364" y="398" as="targetPoint" />
          </mxGeometry>
        </mxCell>
        <mxCell id="3Z__f5ttQTV5sjtYZmIr-101" value="search result" style="text;html=1;align=center;verticalAlign=middle;resizable=0;points=[];autosize=1;strokeColor=none;fillColor=none;" parent="1" vertex="1">
          <mxGeometry x="2456" y="376" width="87" height="26" as="geometry" />
        </mxCell>
        <mxCell id="3Z__f5ttQTV5sjtYZmIr-102" value="" style="endArrow=open;html=1;rounded=0;dashed=1;endFill=0;exitX=0;exitY=0.75;exitDx=0;exitDy=0;" parent="1" source="3Z__f5ttQTV5sjtYZmIr-95" edge="1">
          <mxGeometry width="50" height="50" relative="1" as="geometry">
            <mxPoint x="2899.5" y="477" as="sourcePoint" />
            <mxPoint x="2361" y="476" as="targetPoint" />
          </mxGeometry>
        </mxCell>
        <mxCell id="3Z__f5ttQTV5sjtYZmIr-103" value="search result" style="text;html=1;align=center;verticalAlign=middle;resizable=0;points=[];autosize=1;strokeColor=none;fillColor=none;" parent="1" vertex="1">
          <mxGeometry x="2589" y="455" width="87" height="26" as="geometry" />
        </mxCell>
        <mxCell id="3Z__f5ttQTV5sjtYZmIr-104" value="" style="rounded=0;whiteSpace=wrap;html=1;" parent="1" vertex="1">
          <mxGeometry x="2557.5" y="512" width="17" height="43" as="geometry" />
        </mxCell>
        <mxCell id="3Z__f5ttQTV5sjtYZmIr-105" value="" style="endArrow=blockThin;html=1;rounded=0;endFill=1;exitX=0.974;exitY=0.07;exitDx=0;exitDy=0;exitPerimeter=0;entryX=0.095;entryY=0.213;entryDx=0;entryDy=0;entryPerimeter=0;" parent="1" edge="1">
          <mxGeometry width="50" height="50" relative="1" as="geometry">
            <mxPoint x="2364" y="535" as="sourcePoint" />
            <mxPoint x="2559" y="535" as="targetPoint" />
          </mxGeometry>
        </mxCell>
        <mxCell id="3Z__f5ttQTV5sjtYZmIr-106" value="selectFlight(flightNumber:String,&lt;div&gt;destination: String, departure: String,&amp;nbsp;&lt;/div&gt;&lt;div&gt;date: Date Time)&lt;/div&gt;" style="text;html=1;align=center;verticalAlign=middle;resizable=0;points=[];autosize=1;strokeColor=none;fillColor=none;" parent="1" vertex="1">
          <mxGeometry x="2359" y="481" width="217" height="55" as="geometry" />
        </mxCell>
        <mxCell id="3Z__f5ttQTV5sjtYZmIr-107" value="" style="endArrow=blockThin;html=1;rounded=0;endFill=1;exitX=0.974;exitY=0.07;exitDx=0;exitDy=0;exitPerimeter=0;entryX=0.095;entryY=0.213;entryDx=0;entryDy=0;entryPerimeter=0;" parent="1" edge="1">
          <mxGeometry width="50" height="50" relative="1" as="geometry">
            <mxPoint x="2364" y="650.97" as="sourcePoint" />
            <mxPoint x="2559" y="650.97" as="targetPoint" />
          </mxGeometry>
        </mxCell>
        <mxCell id="3Z__f5ttQTV5sjtYZmIr-108" value="&lt;span style=&quot;font-size: 12px; text-align: left; text-wrap-mode: wrap; background-color: rgb(251, 251, 251);&quot;&gt;selectHotel(hotelName: String)&lt;/span&gt;" style="edgeLabel;html=1;align=center;verticalAlign=middle;resizable=0;points=[];" parent="3Z__f5ttQTV5sjtYZmIr-107" vertex="1" connectable="0">
          <mxGeometry x="0.0159" y="4" relative="1" as="geometry">
            <mxPoint x="-4" y="-17" as="offset" />
          </mxGeometry>
        </mxCell>
        <mxCell id="3Z__f5ttQTV5sjtYZmIr-109" value="" style="rounded=0;whiteSpace=wrap;html=1;" parent="1" vertex="1">
          <mxGeometry x="2557.5" y="630" width="17" height="43" as="geometry" />
        </mxCell>
        <mxCell id="3Z__f5ttQTV5sjtYZmIr-110" value="" style="endArrow=blockThin;html=1;rounded=0;endFill=1;exitX=0.974;exitY=0.07;exitDx=0;exitDy=0;exitPerimeter=0;" parent="1" edge="1">
          <mxGeometry width="50" height="50" relative="1" as="geometry">
            <mxPoint x="2364" y="588" as="sourcePoint" />
            <mxPoint x="3067" y="588" as="targetPoint" />
          </mxGeometry>
        </mxCell>
        <mxCell id="3Z__f5ttQTV5sjtYZmIr-111" value="" style="rounded=0;whiteSpace=wrap;html=1;" parent="1" vertex="1">
          <mxGeometry x="3067.5" y="570" width="17" height="43" as="geometry" />
        </mxCell>
        <mxCell id="3Z__f5ttQTV5sjtYZmIr-112" value="&lt;font style=&quot;font-size: 9px;&quot;&gt;&amp;lt;&amp;lt;&lt;/font&gt; create &lt;font style=&quot;font-size: 9px;&quot;&gt;&amp;gt;&amp;gt;&lt;/font&gt;" style="text;html=1;align=center;verticalAlign=middle;resizable=0;points=[];autosize=1;strokeColor=none;fillColor=none;" parent="1" vertex="1">
          <mxGeometry x="2618" y="566" width="79" height="26" as="geometry" />
        </mxCell>
        <mxCell id="3Z__f5ttQTV5sjtYZmIr-113" value="" style="endArrow=blockThin;html=1;rounded=0;endFill=1;exitX=0.974;exitY=0.07;exitDx=0;exitDy=0;exitPerimeter=0;" parent="1" edge="1">
          <mxGeometry width="50" height="50" relative="1" as="geometry">
            <mxPoint x="2364" y="706" as="sourcePoint" />
            <mxPoint x="3067" y="706" as="targetPoint" />
          </mxGeometry>
        </mxCell>
        <mxCell id="3Z__f5ttQTV5sjtYZmIr-114" value="" style="rounded=0;whiteSpace=wrap;html=1;" parent="1" vertex="1">
          <mxGeometry x="3067.5" y="685" width="17" height="43" as="geometry" />
        </mxCell>
        <mxCell id="3Z__f5ttQTV5sjtYZmIr-115" value="&lt;font style=&quot;font-size: 9px;&quot;&gt;&amp;lt;&amp;lt;&lt;/font&gt; create &lt;font style=&quot;font-size: 9px;&quot;&gt;&amp;gt;&amp;gt;&lt;/font&gt;" style="text;html=1;align=center;verticalAlign=middle;resizable=0;points=[];autosize=1;strokeColor=none;fillColor=none;" parent="1" vertex="1">
          <mxGeometry x="2740" y="682" width="79" height="26" as="geometry" />
        </mxCell>
        <mxCell id="3Z__f5ttQTV5sjtYZmIr-116" value="" style="endArrow=blockThin;html=1;rounded=0;endFill=1;" parent="1" edge="1">
          <mxGeometry width="50" height="50" relative="1" as="geometry">
            <mxPoint x="2364" y="759" as="sourcePoint" />
            <mxPoint x="2557" y="759" as="targetPoint" />
          </mxGeometry>
        </mxCell>
        <mxCell id="3Z__f5ttQTV5sjtYZmIr-117" value="" style="rounded=0;whiteSpace=wrap;html=1;" parent="1" vertex="1">
          <mxGeometry x="2557.5" y="736" width="17" height="665" as="geometry" />
        </mxCell>
        <mxCell id="3Z__f5ttQTV5sjtYZmIr-118" value="&lt;p style=&quot;margin: 0px; font-variant-numeric: normal; font-variant-east-asian: normal; font-variant-alternates: normal; font-size-adjust: none; font-kerning: auto; font-optical-sizing: auto; font-feature-settings: normal; font-variation-settings: normal; font-variant-position: normal; font-variant-emoji: normal; font-stretch: normal; line-height: normal; color: rgb(14, 14, 14); text-align: start; text-wrap-mode: wrap;&quot; class=&quot;p1&quot;&gt;&lt;font face=&quot;Helvetica&quot;&gt;confirmBooking(bookingId)&lt;/font&gt;&lt;/p&gt;" style="text;html=1;align=center;verticalAlign=middle;resizable=0;points=[];autosize=1;strokeColor=none;fillColor=none;" parent="1" vertex="1">
          <mxGeometry x="2388.5" y="728" width="161" height="26" as="geometry" />
        </mxCell>
        <mxCell id="3Z__f5ttQTV5sjtYZmIr-119" value="" style="endArrow=open;html=1;rounded=0;dashed=1;endFill=0;" parent="1" edge="1">
          <mxGeometry width="50" height="50" relative="1" as="geometry">
            <mxPoint x="2557" y="818" as="sourcePoint" />
            <mxPoint x="2364" y="818" as="targetPoint" />
          </mxGeometry>
        </mxCell>
        <mxCell id="3Z__f5ttQTV5sjtYZmIr-120" value="&lt;p style=&quot;margin: 0px; font-variant-numeric: normal; font-variant-east-asian: normal; font-variant-alternates: normal; font-size-adjust: none; font-kerning: auto; font-optical-sizing: auto; font-feature-settings: normal; font-variation-settings: normal; font-variant-position: normal; font-variant-emoji: normal; font-stretch: normal; line-height: normal; color: rgb(14, 14, 14); text-align: start; text-wrap-mode: wrap;&quot; class=&quot;p1&quot;&gt;&lt;font face=&quot;Helvetica&quot;&gt;bookingConfirmed&lt;/font&gt;&lt;/p&gt;&lt;p style=&quot;margin: 0px; font-variant-numeric: normal; font-variant-east-asian: normal; font-variant-alternates: normal; font-size-adjust: none; font-kerning: auto; font-optical-sizing: auto; font-feature-settings: normal; font-variation-settings: normal; font-variant-position: normal; font-variant-emoji: normal; font-stretch: normal; line-height: normal; color: rgb(14, 14, 14); text-align: start; text-wrap-mode: wrap;&quot; class=&quot;p1&quot;&gt;&lt;font face=&quot;Helvetica&quot;&gt;(bookingId, status)&lt;/font&gt;&lt;/p&gt;" style="text;html=1;align=center;verticalAlign=middle;resizable=0;points=[];autosize=1;strokeColor=none;fillColor=none;" parent="1" vertex="1">
          <mxGeometry x="2409" y="770" width="117" height="40" as="geometry" />
        </mxCell>
        <mxCell id="3Z__f5ttQTV5sjtYZmIr-121" value="" style="rounded=0;whiteSpace=wrap;html=1;" parent="1" vertex="1">
          <mxGeometry x="3233" y="877" width="17" height="56" as="geometry" />
        </mxCell>
        <mxCell id="3Z__f5ttQTV5sjtYZmIr-122" value="" style="endArrow=blockThin;html=1;rounded=0;endFill=1;" parent="1" edge="1">
          <mxGeometry width="50" height="50" relative="1" as="geometry">
            <mxPoint x="2572" y="903" as="sourcePoint" />
            <mxPoint x="3232" y="902" as="targetPoint" />
          </mxGeometry>
        </mxCell>
        <mxCell id="3Z__f5ttQTV5sjtYZmIr-123" value="" style="endArrow=blockThin;html=1;rounded=0;endFill=1;exitX=1.007;exitY=0.537;exitDx=0;exitDy=0;exitPerimeter=0;" parent="1" edge="1">
          <mxGeometry width="50" height="50" relative="1" as="geometry">
            <mxPoint x="2364.5" y="874" as="sourcePoint" />
            <mxPoint x="2557.5" y="874" as="targetPoint" />
          </mxGeometry>
        </mxCell>
        <mxCell id="3Z__f5ttQTV5sjtYZmIr-124" value="&lt;p style=&quot;margin: 0px; font-variant-numeric: normal; font-variant-east-asian: normal; font-variant-alternates: normal; font-size-adjust: none; font-kerning: auto; font-optical-sizing: auto; font-feature-settings: normal; font-variation-settings: normal; font-variant-position: normal; font-variant-emoji: normal; font-stretch: normal; line-height: normal; color: rgb(14, 14, 14); text-align: start; text-wrap-mode: wrap;&quot; class=&quot;p1&quot;&gt;&lt;font face=&quot;Helvetica&quot;&gt;makePayment&lt;/font&gt;&lt;/p&gt;&lt;p style=&quot;margin: 0px; font-variant-numeric: normal; font-variant-east-asian: normal; font-variant-alternates: normal; font-size-adjust: none; font-kerning: auto; font-optical-sizing: auto; font-feature-settings: normal; font-variation-settings: normal; font-variant-position: normal; font-variant-emoji: normal; font-stretch: normal; line-height: normal; color: rgb(14, 14, 14); text-align: start; text-wrap-mode: wrap;&quot; class=&quot;p1&quot;&gt;&lt;font face=&quot;Helvetica&quot;&gt;(cardId, PIN, bookingId)&lt;/font&gt;&lt;/p&gt;" style="text;html=1;align=center;verticalAlign=middle;resizable=0;points=[];autosize=1;strokeColor=none;fillColor=none;" parent="1" vertex="1">
          <mxGeometry x="2388.5" y="831" width="145" height="40" as="geometry" />
        </mxCell>
        <mxCell id="3Z__f5ttQTV5sjtYZmIr-125" value="&lt;font style=&quot;font-size: 9px;&quot;&gt;&amp;lt;&amp;lt;&lt;/font&gt; create &lt;font style=&quot;font-size: 9px;&quot;&gt;&amp;gt;&amp;gt;&lt;/font&gt;" style="text;html=1;align=center;verticalAlign=middle;resizable=0;points=[];autosize=1;strokeColor=none;fillColor=none;" parent="1" vertex="1">
          <mxGeometry x="2795" y="871" width="79" height="26" as="geometry" />
        </mxCell>
        <mxCell id="3Z__f5ttQTV5sjtYZmIr-126" value="" style="endArrow=blockThin;html=1;rounded=0;endFill=1;exitX=1.007;exitY=0.537;exitDx=0;exitDy=0;exitPerimeter=0;" parent="1" edge="1">
          <mxGeometry width="50" height="50" relative="1" as="geometry">
            <mxPoint x="2557" y="918" as="sourcePoint" />
            <mxPoint x="2364" y="918" as="targetPoint" />
          </mxGeometry>
        </mxCell>
        <mxCell id="3Z__f5ttQTV5sjtYZmIr-127" value="&lt;p style=&quot;margin: 0px; font-variant-numeric: normal; font-variant-east-asian: normal; font-variant-alternates: normal; font-size-adjust: none; font-kerning: auto; font-optical-sizing: auto; font-feature-settings: normal; font-variation-settings: normal; font-variant-position: normal; font-variant-emoji: normal; font-stretch: normal; line-height: normal; color: rgb(14, 14, 14); text-align: start; text-wrap-mode: wrap;&quot; class=&quot;p1&quot;&gt;&lt;font face=&quot;Helvetica&quot;&gt;confirmPaymentSuccess()&lt;/font&gt;&lt;/p&gt;" style="text;html=1;align=center;verticalAlign=middle;resizable=0;points=[];autosize=1;strokeColor=none;fillColor=none;" parent="1" vertex="1">
          <mxGeometry x="2385" y="892" width="158" height="26" as="geometry" />
        </mxCell>
        <mxCell id="3Z__f5ttQTV5sjtYZmIr-128" value="Notification" style="shape=umlLifeline;perimeter=lifelinePerimeter;whiteSpace=wrap;html=1;container=1;dropTarget=0;collapsible=0;recursiveResize=0;outlineConnect=0;portConstraint=eastwest;newEdgeStyle={&quot;curved&quot;:0,&quot;rounded&quot;:0};" parent="1" vertex="1">
          <mxGeometry x="3367" y="35" width="100" height="1825" as="geometry" />
        </mxCell>
        <mxCell id="3Z__f5ttQTV5sjtYZmIr-129" value="Invoice" style="shape=umlLifeline;perimeter=lifelinePerimeter;whiteSpace=wrap;html=1;container=1;dropTarget=0;collapsible=0;recursiveResize=0;outlineConnect=0;portConstraint=eastwest;newEdgeStyle={&quot;curved&quot;:0,&quot;rounded&quot;:0};" parent="1" vertex="1">
          <mxGeometry x="3548" y="35" width="100" height="1824" as="geometry" />
        </mxCell>
        <mxCell id="3Z__f5ttQTV5sjtYZmIr-130" value="" style="rounded=0;whiteSpace=wrap;html=1;" parent="1" vertex="1">
          <mxGeometry x="3589.5" y="952.5" width="17" height="111.5" as="geometry" />
        </mxCell>
        <mxCell id="3Z__f5ttQTV5sjtYZmIr-131" value="" style="edgeStyle=elbowEdgeStyle;fontSize=12;html=1;endArrow=blockThin;endFill=1;rounded=0;entryX=0.147;entryY=0.363;entryDx=0;entryDy=0;entryPerimeter=0;" parent="1" target="3Z__f5ttQTV5sjtYZmIr-130" edge="1">
          <mxGeometry width="160" relative="1" as="geometry">
            <mxPoint x="2576" y="993" as="sourcePoint" />
            <mxPoint x="3585" y="993" as="targetPoint" />
          </mxGeometry>
        </mxCell>
        <mxCell id="3Z__f5ttQTV5sjtYZmIr-132" value="&lt;font style=&quot;font-size: 9px;&quot;&gt;&amp;lt;&amp;lt;&lt;/font&gt; create &lt;font style=&quot;font-size: 9px;&quot;&gt;&amp;gt;&amp;gt;&lt;/font&gt;" style="text;html=1;align=center;verticalAlign=middle;resizable=0;points=[];autosize=1;strokeColor=none;fillColor=none;" parent="1" vertex="1">
          <mxGeometry x="3000" y="957" width="79" height="26" as="geometry" />
        </mxCell>
        <mxCell id="3Z__f5ttQTV5sjtYZmIr-133" value="" style="rounded=0;whiteSpace=wrap;html=1;" parent="1" vertex="1">
          <mxGeometry x="3408.5" y="1058" width="17" height="208" as="geometry" />
        </mxCell>
        <mxCell id="3Z__f5ttQTV5sjtYZmIr-134" value="" style="edgeStyle=elbowEdgeStyle;fontSize=12;html=1;endArrow=blockThin;endFill=0;rounded=0;" parent="1" edge="1">
          <mxGeometry width="160" relative="1" as="geometry">
            <mxPoint x="2574.5" y="1088" as="sourcePoint" />
            <mxPoint x="3408" y="1088" as="targetPoint" />
          </mxGeometry>
        </mxCell>
        <mxCell id="3Z__f5ttQTV5sjtYZmIr-135" value="&lt;p style=&quot;margin: 0px; font-variant-numeric: normal; font-variant-east-asian: normal; font-variant-alternates: normal; font-size-adjust: none; font-kerning: auto; font-optical-sizing: auto; font-feature-settings: normal; font-variation-settings: normal; font-variant-position: normal; font-variant-emoji: normal; font-stretch: normal; line-height: normal; color: rgb(14, 14, 14); text-align: start; text-wrap-mode: wrap;&quot; class=&quot;p1&quot;&gt;&lt;font face=&quot;Helvetica&quot;&gt;sendNotification(userId, &quot;Your payment has been processed successfully.&quot;)&lt;/font&gt;&lt;/p&gt;" style="text;html=1;align=center;verticalAlign=middle;resizable=0;points=[];autosize=1;strokeColor=none;fillColor=none;" parent="1" vertex="1">
          <mxGeometry x="2800" y="1045" width="415" height="26" as="geometry" />
        </mxCell>
        <mxCell id="3Z__f5ttQTV5sjtYZmIr-136" value="" style="edgeStyle=elbowEdgeStyle;fontSize=12;html=1;endArrow=blockThin;endFill=1;rounded=0;" parent="1" edge="1">
          <mxGeometry width="160" relative="1" as="geometry">
            <mxPoint x="2557.5" y="951" as="sourcePoint" />
            <mxPoint x="2365" y="951" as="targetPoint" />
          </mxGeometry>
        </mxCell>
        <mxCell id="3Z__f5ttQTV5sjtYZmIr-137" value="&lt;p style=&quot;margin: 0px; font-variant-numeric: normal; font-variant-east-asian: normal; font-variant-alternates: normal; font-size-adjust: none; font-kerning: auto; font-optical-sizing: auto; font-feature-settings: normal; font-variation-settings: normal; font-variant-position: normal; font-variant-emoji: normal; font-stretch: normal; line-height: normal; color: rgb(14, 14, 14); text-align: start; text-wrap-mode: wrap;&quot; class=&quot;p1&quot;&gt;&lt;font face=&quot;Helvetica&quot;&gt;notifyPaymentFailure()&lt;/font&gt;&lt;/p&gt;" style="text;html=1;align=center;verticalAlign=middle;resizable=0;points=[];autosize=1;strokeColor=none;fillColor=none;" parent="1" vertex="1">
          <mxGeometry x="2388.5" y="922" width="139" height="26" as="geometry" />
        </mxCell>
        <mxCell id="3Z__f5ttQTV5sjtYZmIr-138" value="&lt;p style=&quot;margin: 0px; font-variant-numeric: normal; font-variant-east-asian: normal; font-variant-alternates: normal; font-size-adjust: none; font-kerning: auto; font-optical-sizing: auto; font-feature-settings: normal; font-variation-settings: normal; font-variant-position: normal; font-variant-emoji: normal; font-stretch: normal; line-height: normal; color: rgb(14, 14, 14); text-align: start; text-wrap-mode: wrap;&quot; class=&quot;p1&quot;&gt;&lt;font face=&quot;Helvetica&quot;&gt;requestPaymentInfoReentry()&lt;/font&gt;&lt;/p&gt;" style="text;html=1;align=center;verticalAlign=middle;resizable=0;points=[];autosize=1;strokeColor=none;fillColor=none;" parent="1" vertex="1">
          <mxGeometry x="2376.5" y="957" width="175" height="26" as="geometry" />
        </mxCell>
        <mxCell id="3Z__f5ttQTV5sjtYZmIr-139" value="" style="edgeStyle=elbowEdgeStyle;fontSize=12;html=1;endArrow=blockThin;endFill=1;rounded=0;" parent="1" edge="1">
          <mxGeometry width="160" relative="1" as="geometry">
            <mxPoint x="2556.5" y="988" as="sourcePoint" />
            <mxPoint x="2364" y="988" as="targetPoint" />
          </mxGeometry>
        </mxCell>
        <mxCell id="3Z__f5ttQTV5sjtYZmIr-140" value="" style="edgeStyle=elbowEdgeStyle;fontSize=12;html=1;endArrow=blockThin;endFill=1;rounded=0;" parent="1" edge="1">
          <mxGeometry width="160" relative="1" as="geometry">
            <mxPoint x="2556" y="1286" as="sourcePoint" />
            <mxPoint x="2366" y="1286" as="targetPoint" />
          </mxGeometry>
        </mxCell>
        <mxCell id="3Z__f5ttQTV5sjtYZmIr-141" value="&lt;p style=&quot;margin: 0px; font-variant-numeric: normal; font-variant-east-asian: normal; font-variant-alternates: normal; font-size-adjust: none; font-kerning: auto; font-optical-sizing: auto; font-feature-settings: normal; font-variation-settings: normal; font-variant-position: normal; font-variant-emoji: normal; font-stretch: normal; line-height: normal; color: rgb(14, 14, 14); text-align: start; text-wrap-mode: wrap;&quot; class=&quot;p1&quot;&gt;&lt;font face=&quot;Helvetica&quot;&gt;sendConfirmation(email)&lt;/font&gt;&lt;/p&gt;" style="text;html=1;align=center;verticalAlign=middle;resizable=0;points=[];autosize=1;strokeColor=none;fillColor=none;" parent="1" vertex="1">
          <mxGeometry x="2389.5" y="1254" width="149" height="26" as="geometry" />
        </mxCell>
        <mxCell id="3Z__f5ttQTV5sjtYZmIr-142" value="&lt;p style=&quot;margin: 0px; font-variant-numeric: normal; font-variant-east-asian: normal; font-variant-alternates: normal; font-size-adjust: none; font-kerning: auto; font-optical-sizing: auto; font-feature-settings: normal; font-variation-settings: normal; font-variant-position: normal; font-variant-emoji: normal; font-stretch: normal; line-height: normal; color: rgb(14, 14, 14); text-align: start; text-wrap-mode: wrap;&quot; class=&quot;p1&quot;&gt;&lt;font face=&quot;Helvetica&quot;&gt;sendInvoice(email, invoiceDetails)&lt;/font&gt;&lt;/p&gt;" style="text;html=1;align=center;verticalAlign=middle;resizable=0;points=[];autosize=1;strokeColor=none;fillColor=none;" parent="1" vertex="1">
          <mxGeometry x="2364" y="1291" width="199" height="26" as="geometry" />
        </mxCell>
        <mxCell id="3Z__f5ttQTV5sjtYZmIr-143" value="" style="edgeStyle=elbowEdgeStyle;fontSize=12;html=1;endArrow=blockThin;endFill=1;rounded=0;entryX=1;entryY=0.554;entryDx=0;entryDy=0;entryPerimeter=0;" parent="1" edge="1">
          <mxGeometry width="160" relative="1" as="geometry">
            <mxPoint x="2556" y="1325" as="sourcePoint" />
            <mxPoint x="2364" y="1325.7180000000003" as="targetPoint" />
            <Array as="points">
              <mxPoint x="2464" y="1335" />
            </Array>
          </mxGeometry>
        </mxCell>
        <mxCell id="3Z__f5ttQTV5sjtYZmIr-144" value="&lt;p style=&quot;margin: 0px; font-variant-numeric: normal; font-variant-east-asian: normal; font-variant-alternates: normal; font-size-adjust: none; font-kerning: auto; font-optical-sizing: auto; font-feature-settings: normal; font-variation-settings: normal; font-variant-position: normal; font-variant-emoji: normal; font-stretch: normal; line-height: normal; color: rgb(14, 14, 14); text-align: start; text-wrap-mode: wrap;&quot; class=&quot;p1&quot;&gt;&lt;font face=&quot;Helvetica&quot;&gt;sendFlightStatus(email, flightDetails)&lt;/font&gt;&lt;/p&gt;" style="text;html=1;align=center;verticalAlign=middle;resizable=0;points=[];autosize=1;strokeColor=none;fillColor=none;" parent="1" vertex="1">
          <mxGeometry x="2893" y="1105" width="213" height="26" as="geometry" />
        </mxCell>
        <mxCell id="3Z__f5ttQTV5sjtYZmIr-145" value="" style="edgeStyle=elbowEdgeStyle;fontSize=12;html=1;endArrow=blockThin;endFill=0;rounded=0;" parent="1" edge="1">
          <mxGeometry width="160" relative="1" as="geometry">
            <mxPoint x="2575.5" y="1138.33" as="sourcePoint" />
            <mxPoint x="3409.5" y="1138.33" as="targetPoint" />
          </mxGeometry>
        </mxCell>
        <mxCell id="3Z__f5ttQTV5sjtYZmIr-146" value="Itinerary" style="shape=umlLifeline;perimeter=lifelinePerimeter;whiteSpace=wrap;html=1;container=1;dropTarget=0;collapsible=0;recursiveResize=0;outlineConnect=0;portConstraint=eastwest;newEdgeStyle={&quot;curved&quot;:0,&quot;rounded&quot;:0};" parent="1" vertex="1">
          <mxGeometry x="3731" y="35" width="100" height="1824" as="geometry" />
        </mxCell>
        <mxCell id="3Z__f5ttQTV5sjtYZmIr-147" value="&lt;font style=&quot;font-size: 9px;&quot;&gt;&amp;lt;&amp;lt;&lt;/font&gt; create &lt;font style=&quot;font-size: 9px;&quot;&gt;&amp;gt;&amp;gt;&lt;/font&gt;" style="text;html=1;align=center;verticalAlign=middle;resizable=0;points=[];autosize=1;strokeColor=none;fillColor=none;" parent="1" vertex="1">
          <mxGeometry x="3124" y="1360" width="79" height="26" as="geometry" />
        </mxCell>
        <mxCell id="3Z__f5ttQTV5sjtYZmIr-148" value="" style="rounded=0;whiteSpace=wrap;html=1;" parent="1" vertex="1">
          <mxGeometry x="3771" y="1360" width="17" height="93" as="geometry" />
        </mxCell>
        <mxCell id="3Z__f5ttQTV5sjtYZmIr-149" value="&lt;p style=&quot;margin: 0px; font-variant-numeric: normal; font-variant-east-asian: normal; font-variant-alternates: normal; font-size-adjust: none; font-kerning: auto; font-optical-sizing: auto; font-feature-settings: normal; font-variation-settings: normal; font-variant-position: normal; font-variant-emoji: normal; font-stretch: normal; line-height: normal; color: rgb(14, 14, 14); text-align: start; text-wrap-mode: wrap;&quot; class=&quot;p1&quot;&gt;&lt;font&gt;modifyItinerary(itineraryId, newDetails)&lt;/font&gt;&lt;/p&gt;" style="text;html=1;align=center;verticalAlign=middle;resizable=0;points=[];autosize=1;strokeColor=none;fillColor=none;" parent="1" vertex="1">
          <mxGeometry x="2346.5" y="1341" width="223" height="26" as="geometry" />
        </mxCell>
        <mxCell id="3Z__f5ttQTV5sjtYZmIr-150" value="" style="edgeStyle=elbowEdgeStyle;fontSize=12;html=1;endArrow=blockThin;endFill=1;rounded=0;exitX=0.069;exitY=0.958;exitDx=0;exitDy=0;exitPerimeter=0;entryX=0.975;entryY=1.179;entryDx=0;entryDy=0;entryPerimeter=0;" parent="1" edge="1">
          <mxGeometry width="160" relative="1" as="geometry">
            <mxPoint x="2364.57" y="1374.35" as="sourcePoint" />
            <mxPoint x="2557.495" y="1374.004" as="targetPoint" />
          </mxGeometry>
        </mxCell>
        <mxCell id="3Z__f5ttQTV5sjtYZmIr-151" value="" style="edgeStyle=elbowEdgeStyle;fontSize=12;html=1;endArrow=block;endFill=0;rounded=0;entryX=1;entryY=0.554;entryDx=0;entryDy=0;entryPerimeter=0;exitX=-0.013;exitY=0.221;exitDx=0;exitDy=0;exitPerimeter=0;" parent="1" edge="1">
          <mxGeometry width="160" relative="1" as="geometry">
            <mxPoint x="2557.499" y="1526" as="sourcePoint" />
            <mxPoint x="2363.72" y="1526.5900000000001" as="targetPoint" />
            <Array as="points">
              <mxPoint x="2491.2200000000003" y="1531.5900000000001" />
            </Array>
          </mxGeometry>
        </mxCell>
        <mxCell id="3Z__f5ttQTV5sjtYZmIr-152" value="update information" style="text;html=1;align=center;verticalAlign=middle;resizable=0;points=[];autosize=1;strokeColor=none;fillColor=none;" parent="1" vertex="1">
          <mxGeometry x="2400" y="1499" width="117" height="26" as="geometry" />
        </mxCell>
        <mxCell id="3Z__f5ttQTV5sjtYZmIr-153" value="&lt;p style=&quot;margin: 0px; font-variant-numeric: normal; font-variant-east-asian: normal; font-variant-alternates: normal; font-size-adjust: none; font-kerning: auto; font-optical-sizing: auto; font-feature-settings: normal; font-variation-settings: normal; font-variant-position: normal; font-variant-emoji: normal; font-stretch: normal; line-height: normal; color: rgb(14, 14, 14); text-align: start; text-wrap-mode: wrap;&quot; class=&quot;p1&quot;&gt;&lt;font face=&quot;Helvetica&quot;&gt;shareItinerary(itineraryId, shareWith)&lt;/font&gt;&lt;/p&gt;" style="text;html=1;align=center;verticalAlign=middle;resizable=0;points=[];autosize=1;strokeColor=none;fillColor=none;" parent="1" vertex="1">
          <mxGeometry x="2354.5" y="1538" width="213" height="26" as="geometry" />
        </mxCell>
        <mxCell id="3Z__f5ttQTV5sjtYZmIr-154" value="" style="edgeStyle=elbowEdgeStyle;fontSize=12;html=1;endArrow=blockThin;endFill=1;rounded=0;exitX=0.069;exitY=0.958;exitDx=0;exitDy=0;exitPerimeter=0;entryX=0.975;entryY=1.179;entryDx=0;entryDy=0;entryPerimeter=0;" parent="1" edge="1">
          <mxGeometry width="160" relative="1" as="geometry">
            <mxPoint x="2365" y="1568" as="sourcePoint" />
            <mxPoint x="2557.5" y="1568" as="targetPoint" />
          </mxGeometry>
        </mxCell>
        <mxCell id="3Z__f5ttQTV5sjtYZmIr-155" value="" style="edgeStyle=elbowEdgeStyle;fontSize=12;html=1;endArrow=blockThin;endFill=0;rounded=0;entryX=0.069;entryY=0.18;entryDx=0;entryDy=0;entryPerimeter=0;" parent="1" target="3Z__f5ttQTV5sjtYZmIr-156" edge="1">
          <mxGeometry width="160" relative="1" as="geometry">
            <mxPoint x="2567" y="1618" as="sourcePoint" />
            <mxPoint x="3401" y="1618" as="targetPoint" />
          </mxGeometry>
        </mxCell>
        <mxCell id="3Z__f5ttQTV5sjtYZmIr-156" value="" style="rounded=0;whiteSpace=wrap;html=1;" parent="1" vertex="1">
          <mxGeometry x="3408.5" y="1585" width="17" height="180" as="geometry" />
        </mxCell>
        <mxCell id="3Z__f5ttQTV5sjtYZmIr-157" value="&lt;font style=&quot;font-size: 9px;&quot;&gt;&amp;lt;&amp;lt;&lt;/font&gt; create &lt;font style=&quot;font-size: 9px;&quot;&gt;&amp;gt;&amp;gt;&lt;/font&gt;" style="text;html=1;align=center;verticalAlign=middle;resizable=0;points=[];autosize=1;strokeColor=none;fillColor=none;" parent="1" vertex="1">
          <mxGeometry x="2956" y="1585" width="79" height="26" as="geometry" />
        </mxCell>
        <mxCell id="3Z__f5ttQTV5sjtYZmIr-158" value="sendNotification(userId, &quot;Itinerary shared successfully with [shareWith]&quot;)" style="text;whiteSpace=wrap;html=1;" parent="1" vertex="1">
          <mxGeometry x="2853.996666666667" y="1628.0033333333336" width="410" height="36" as="geometry" />
        </mxCell>
        <mxCell id="3Z__f5ttQTV5sjtYZmIr-159" value="" style="edgeStyle=elbowEdgeStyle;fontSize=12;html=1;endArrow=blockThin;endFill=0;rounded=0;" parent="1" edge="1">
          <mxGeometry width="160" relative="1" as="geometry">
            <mxPoint x="2574.5" y="1658" as="sourcePoint" />
            <mxPoint x="3408.5" y="1658" as="targetPoint" />
          </mxGeometry>
        </mxCell>
        <mxCell id="3Z__f5ttQTV5sjtYZmIr-160" value="" style="edgeStyle=elbowEdgeStyle;fontSize=12;html=1;endArrow=open;endFill=0;rounded=0;entryX=0;entryY=0.5;entryDx=0;entryDy=0;dashed=1;" parent="1" edge="1">
          <mxGeometry width="160" relative="1" as="geometry">
            <mxPoint x="3409.5" y="1710" as="sourcePoint" />
            <mxPoint x="2364" y="1710" as="targetPoint" />
          </mxGeometry>
        </mxCell>
        <mxCell id="3Z__f5ttQTV5sjtYZmIr-161" value="sendNotification(userId, &quot;Itinerary shared successfully with [shareWith]&quot;)" style="text;whiteSpace=wrap;html=1;" parent="1" vertex="1">
          <mxGeometry x="2842.996666666667" y="1680.0033333333336" width="410" height="36" as="geometry" />
        </mxCell>
        <mxCell id="3Z__f5ttQTV5sjtYZmIr-162" value="" style="edgeStyle=elbowEdgeStyle;fontSize=12;html=1;endArrow=open;endFill=0;rounded=0;entryX=0;entryY=0.5;entryDx=0;entryDy=0;dashed=1;" parent="1" edge="1">
          <mxGeometry width="160" relative="1" as="geometry">
            <mxPoint x="3409.5" y="1187" as="sourcePoint" />
            <mxPoint x="2364" y="1187" as="targetPoint" />
          </mxGeometry>
        </mxCell>
        <mxCell id="3Z__f5ttQTV5sjtYZmIr-163" value="&lt;p style=&quot;margin: 0px; font-variant-numeric: normal; font-variant-east-asian: normal; font-variant-alternates: normal; font-size-adjust: none; font-kerning: auto; font-optical-sizing: auto; font-feature-settings: normal; font-variation-settings: normal; font-variant-position: normal; font-variant-emoji: normal; font-stretch: normal; line-height: normal; color: rgb(14, 14, 14); text-align: start; text-wrap-mode: wrap;&quot; class=&quot;p1&quot;&gt;&lt;font face=&quot;Helvetica&quot;&gt;sendFlightStatus(email, flightDetails)&lt;/font&gt;&lt;/p&gt;" style="text;html=1;align=center;verticalAlign=middle;resizable=0;points=[];autosize=1;strokeColor=none;fillColor=none;" parent="1" vertex="1">
          <mxGeometry x="2906.5" y="1153" width="213" height="26" as="geometry" />
        </mxCell>
        <mxCell id="3Z__f5ttQTV5sjtYZmIr-164" value="" style="edgeStyle=elbowEdgeStyle;fontSize=12;html=1;endArrow=open;endFill=0;rounded=0;entryX=0;entryY=0.5;entryDx=0;entryDy=0;dashed=1;" parent="1" edge="1">
          <mxGeometry width="160" relative="1" as="geometry">
            <mxPoint x="3409.5" y="1247" as="sourcePoint" />
            <mxPoint x="2364" y="1247" as="targetPoint" />
          </mxGeometry>
        </mxCell>
        <mxCell id="3Z__f5ttQTV5sjtYZmIr-165" value="&lt;p style=&quot;margin: 0px; font-variant-numeric: normal; font-variant-east-asian: normal; font-variant-alternates: normal; font-size-adjust: none; font-kerning: auto; font-optical-sizing: auto; font-feature-settings: normal; font-variation-settings: normal; font-variant-position: normal; font-variant-emoji: normal; font-stretch: normal; line-height: normal; color: rgb(14, 14, 14); text-align: start; text-wrap-mode: wrap;&quot; class=&quot;p1&quot;&gt;&lt;font face=&quot;Helvetica&quot;&gt;sendNotification(userId, &quot;Your payment has been processed successfully.&quot;)&lt;/font&gt;&lt;/p&gt;" style="text;html=1;align=center;verticalAlign=middle;resizable=0;points=[];autosize=1;strokeColor=none;fillColor=none;" parent="1" vertex="1">
          <mxGeometry x="2803" y="1205" width="415" height="26" as="geometry" />
        </mxCell>
        <mxCell id="3Z__f5ttQTV5sjtYZmIr-166" value="" style="edgeStyle=elbowEdgeStyle;fontSize=12;html=1;endArrow=blockThin;endFill=1;rounded=0;entryX=0;entryY=0.25;entryDx=0;entryDy=0;" parent="1" target="3Z__f5ttQTV5sjtYZmIr-148" edge="1">
          <mxGeometry width="160" relative="1" as="geometry">
            <mxPoint x="2575" y="1383" as="sourcePoint" />
            <mxPoint x="3716.636363636364" y="1394" as="targetPoint" />
          </mxGeometry>
        </mxCell>
        <mxCell id="3Z__f5ttQTV5sjtYZmIr-167" value="" style="edgeStyle=elbowEdgeStyle;fontSize=12;html=1;endArrow=open;endFill=0;rounded=0;entryX=1.109;entryY=0.801;entryDx=0;entryDy=0;dashed=1;entryPerimeter=0;" parent="1" target="3Z__f5ttQTV5sjtYZmIr-83" edge="1">
          <mxGeometry width="160" relative="1" as="geometry">
            <mxPoint x="3770.5" y="1442" as="sourcePoint" />
            <mxPoint x="2574.5" y="1442" as="targetPoint" />
          </mxGeometry>
        </mxCell>
        <mxCell id="3Z__f5ttQTV5sjtYZmIr-168" value="" style="rounded=0;whiteSpace=wrap;html=1;" parent="1" vertex="1">
          <mxGeometry x="2557.5" y="1472" width="17" height="210" as="geometry" />
        </mxCell>
        <mxCell id="3Z__f5ttQTV5sjtYZmIr-169" value="&lt;p style=&quot;margin: 0px; font-variant-numeric: normal; font-variant-east-asian: normal; font-variant-alternates: normal; font-size-adjust: none; font-kerning: auto; font-optical-sizing: auto; font-feature-settings: normal; font-variation-settings: normal; font-variant-position: normal; font-variant-emoji: normal; font-stretch: normal; line-height: normal; color: rgb(14, 14, 14); text-align: start; text-wrap-mode: wrap;&quot; class=&quot;p1&quot;&gt;&lt;font face=&quot;Helvetica&quot;&gt;displayInvoiceDetails(): String&lt;/font&gt;&lt;/p&gt;" style="text;html=1;align=center;verticalAlign=middle;resizable=0;points=[];autosize=1;strokeColor=none;fillColor=none;" parent="1" vertex="1">
          <mxGeometry x="2910" y="1414" width="176" height="26" as="geometry" />
        </mxCell>
        <mxCell id="3Z__f5ttQTV5sjtYZmIr-170" value="Traveller" style="swimlane;fontStyle=1;align=center;verticalAlign=top;childLayout=stackLayout;horizontal=1;startSize=26;horizontalStack=0;resizeParent=1;resizeParentMax=0;resizeLast=0;collapsible=1;marginBottom=0;whiteSpace=wrap;html=1;" parent="1" vertex="1">
          <mxGeometry x="4000" y="493.5" width="208" height="249" as="geometry" />
        </mxCell>
        <mxCell id="3Z__f5ttQTV5sjtYZmIr-171" value="&lt;p style=&quot;margin: 0px; font-variant-numeric: normal; font-variant-east-asian: normal; font-variant-alternates: normal; font-size-adjust: none; font-kerning: auto; font-optical-sizing: auto; font-feature-settings: normal; font-variation-settings: normal; font-variant-position: normal; font-variant-emoji: normal; font-stretch: normal; line-height: normal;&quot; class=&quot;p1&quot;&gt;&lt;font face=&quot;Helvetica&quot;&gt;+ name: String&lt;/font&gt;&lt;/p&gt;&lt;p style=&quot;margin: 0px; font-variant-numeric: normal; font-variant-east-asian: normal; font-variant-alternates: normal; font-size-adjust: none; font-kerning: auto; font-optical-sizing: auto; font-feature-settings: normal; font-variation-settings: normal; font-variant-position: normal; font-variant-emoji: normal; font-stretch: normal; line-height: normal;&quot; class=&quot;p1&quot;&gt;&lt;font face=&quot;Helvetica&quot;&gt;+ email: String&lt;/font&gt;&lt;/p&gt;&lt;p style=&quot;margin: 0px; font-variant-numeric: normal; font-variant-east-asian: normal; font-variant-alternates: normal; font-size-adjust: none; font-kerning: auto; font-optical-sizing: auto; font-feature-settings: normal; font-variation-settings: normal; font-variant-position: normal; font-variant-emoji: normal; font-stretch: normal; line-height: normal;&quot; class=&quot;p1&quot;&gt;&lt;font face=&quot;Helvetica&quot;&gt;+ phone: String&lt;/font&gt;&lt;/p&gt;&lt;p style=&quot;margin: 0px; font-variant-numeric: normal; font-variant-east-asian: normal; font-variant-alternates: normal; font-size-adjust: none; font-kerning: auto; font-optical-sizing: auto; font-feature-settings: normal; font-variation-settings: normal; font-variant-position: normal; font-variant-emoji: normal; font-stretch: normal; line-height: normal;&quot; class=&quot;p1&quot;&gt;&lt;font face=&quot;Helvetica&quot;&gt;+ passport: String&lt;/font&gt;&lt;/p&gt;&lt;p style=&quot;margin: 0px; font-variant-numeric: normal; font-variant-east-asian: normal; font-variant-alternates: normal; font-size-adjust: none; font-kerning: auto; font-optical-sizing: auto; font-feature-settings: normal; font-variation-settings: normal; font-variant-position: normal; font-variant-emoji: normal; font-stretch: normal; line-height: normal;&quot; class=&quot;p1&quot;&gt;&lt;font face=&quot;Helvetica&quot;&gt;+ birthdate: Date&lt;/font&gt;&lt;/p&gt;&lt;p style=&quot;margin: 0px; font-variant-numeric: normal; font-variant-east-asian: normal; font-variant-alternates: normal; font-size-adjust: none; font-kerning: auto; font-optical-sizing: auto; font-feature-settings: normal; font-variation-settings: normal; font-variant-position: normal; font-variant-emoji: normal; font-stretch: normal; line-height: normal;&quot; class=&quot;p1&quot;&gt;&lt;font face=&quot;Helvetica&quot;&gt;+ gender: String&lt;/font&gt;&lt;/p&gt;&lt;p style=&quot;margin: 0px; font-variant-numeric: normal; font-variant-east-asian: normal; font-variant-alternates: normal; font-size-adjust: none; font-kerning: auto; font-optical-sizing: auto; font-feature-settings: normal; font-variation-settings: normal; font-variant-position: normal; font-variant-emoji: normal; font-stretch: normal; line-height: normal;&quot; class=&quot;p1&quot;&gt;&lt;font face=&quot;Helvetica&quot;&gt;+ nationality: String&lt;/font&gt;&lt;/p&gt;" style="text;strokeColor=none;fillColor=none;align=left;verticalAlign=top;spacingLeft=4;spacingRight=4;overflow=hidden;rotatable=0;points=[[0,0.5],[1,0.5]];portConstraint=eastwest;whiteSpace=wrap;html=1;" parent="3Z__f5ttQTV5sjtYZmIr-170" vertex="1">
          <mxGeometry y="26" width="208" height="110" as="geometry" />
        </mxCell>
        <mxCell id="3Z__f5ttQTV5sjtYZmIr-172" value="" style="line;strokeWidth=1;fillColor=none;align=left;verticalAlign=middle;spacingTop=-1;spacingLeft=3;spacingRight=3;rotatable=0;labelPosition=right;points=[];portConstraint=eastwest;strokeColor=inherit;" parent="3Z__f5ttQTV5sjtYZmIr-170" vertex="1">
          <mxGeometry y="136" width="208" height="8" as="geometry" />
        </mxCell>
        <mxCell id="3Z__f5ttQTV5sjtYZmIr-173" value="&lt;div&gt;+ register(name: String, email: String, phone: String, passport: String, birthdate: Date, gender: String, nationality: String): User&lt;/div&gt;&lt;div&gt;+ login(email: String, password: String): User&lt;/div&gt;" style="text;strokeColor=none;fillColor=none;align=left;verticalAlign=top;spacingLeft=4;spacingRight=4;overflow=hidden;rotatable=0;points=[[0,0.5],[1,0.5]];portConstraint=eastwest;whiteSpace=wrap;html=1;" parent="3Z__f5ttQTV5sjtYZmIr-170" vertex="1">
          <mxGeometry y="144" width="208" height="105" as="geometry" />
        </mxCell>
        <mxCell id="3Z__f5ttQTV5sjtYZmIr-174" value="Booking" style="swimlane;fontStyle=1;align=center;verticalAlign=top;childLayout=stackLayout;horizontal=1;startSize=26;horizontalStack=0;resizeParent=1;resizeParentMax=0;resizeLast=0;collapsible=1;marginBottom=0;whiteSpace=wrap;html=1;" parent="1" vertex="1">
          <mxGeometry x="4421.5" y="184" width="227" height="249" as="geometry" />
        </mxCell>
        <mxCell id="3Z__f5ttQTV5sjtYZmIr-175" value="&lt;font&gt;+&amp;nbsp;&lt;span style=&quot;color: rgb(14, 14, 14); background-color: initial;&quot;&gt;bookingId: String&lt;/span&gt;&lt;/font&gt;&lt;div&gt;&lt;font&gt;&lt;span style=&quot;color: rgb(14, 14, 14); background-color: initial;&quot;&gt;+&amp;nbsp;&lt;/span&gt;&lt;span style=&quot;color: rgb(14, 14, 14); background-color: initial;&quot;&gt;userId: String&lt;/span&gt;&lt;/font&gt;&lt;/div&gt;&lt;div&gt;&lt;font&gt;&lt;span style=&quot;color: rgb(14, 14, 14); background-color: initial;&quot;&gt;+&amp;nbsp;&lt;/span&gt;&lt;span style=&quot;color: rgb(14, 14, 14); background-color: initial;&quot;&gt;bookingDetails: String&lt;/span&gt;&lt;/font&gt;&lt;/div&gt;&lt;div&gt;&lt;font&gt;&lt;span style=&quot;color: rgb(14, 14, 14); background-color: initial;&quot;&gt;+&lt;/span&gt;&lt;/font&gt;&lt;span style=&quot;font-family: &amp;quot;.AppleSystemUIFontMonospaced&amp;quot;; font-size: 13px; background-color: initial;&quot;&gt;&amp;nbsp;&lt;/span&gt;&lt;span style=&quot;font-size: 13px; background-color: initial;&quot;&gt;&lt;font face=&quot;Helvetica&quot;&gt;status: String&lt;/font&gt;&lt;/span&gt;&lt;span style=&quot;font-family: &amp;quot;.AppleSystemUIFontMonospaced&amp;quot;; font-size: 13px; background-color: initial;&quot; class=&quot;Apple-converted-space&quot;&gt;&amp;nbsp;&lt;/span&gt;&lt;/div&gt;" style="text;strokeColor=none;fillColor=none;align=left;verticalAlign=top;spacingLeft=4;spacingRight=4;overflow=hidden;rotatable=0;points=[[0,0.5],[1,0.5]];portConstraint=eastwest;whiteSpace=wrap;html=1;" parent="3Z__f5ttQTV5sjtYZmIr-174" vertex="1">
          <mxGeometry y="26" width="227" height="66" as="geometry" />
        </mxCell>
        <mxCell id="3Z__f5ttQTV5sjtYZmIr-176" value="" style="line;strokeWidth=1;fillColor=none;align=left;verticalAlign=middle;spacingTop=-1;spacingLeft=3;spacingRight=3;rotatable=0;labelPosition=right;points=[];portConstraint=eastwest;strokeColor=inherit;" parent="3Z__f5ttQTV5sjtYZmIr-174" vertex="1">
          <mxGeometry y="92" width="227" height="8" as="geometry" />
        </mxCell>
        <mxCell id="3Z__f5ttQTV5sjtYZmIr-177" value="&lt;div&gt;+ createBooking(userID: String, flightID: String, hotelID: String, bookingDetails: String): Booking&lt;/div&gt;&lt;div&gt;&lt;span style=&quot;background-color: initial;&quot;&gt;+ cancelBooking(bookingID: String): Boolean&amp;nbsp;&amp;nbsp;&lt;/span&gt;&lt;/div&gt;&lt;div&gt;+ modifyBooking(bookingID: String, newDetails: String): Boolean&amp;nbsp;&lt;/div&gt;&lt;div&gt;+ viewBookingDetails(bookingID: String): BookingDetails&lt;/div&gt;" style="text;strokeColor=none;fillColor=none;align=left;verticalAlign=top;spacingLeft=4;spacingRight=4;overflow=hidden;rotatable=0;points=[[0,0.5],[1,0.5]];portConstraint=eastwest;whiteSpace=wrap;html=1;" parent="3Z__f5ttQTV5sjtYZmIr-174" vertex="1">
          <mxGeometry y="100" width="227" height="149" as="geometry" />
        </mxCell>
        <mxCell id="3Z__f5ttQTV5sjtYZmIr-178" value="Flight" style="swimlane;fontStyle=1;align=center;verticalAlign=top;childLayout=stackLayout;horizontal=1;startSize=26;horizontalStack=0;resizeParent=1;resizeParentMax=0;resizeLast=0;collapsible=1;marginBottom=0;whiteSpace=wrap;html=1;" parent="1" vertex="1">
          <mxGeometry x="4745" y="610" width="235" height="234" as="geometry" />
        </mxCell>
        <mxCell id="3Z__f5ttQTV5sjtYZmIr-179" value="&lt;p style=&quot;margin: 0px; font-variant-numeric: normal; font-variant-east-asian: normal; font-variant-alternates: normal; font-size-adjust: none; font-kerning: auto; font-optical-sizing: auto; font-feature-settings: normal; font-variation-settings: normal; font-variant-position: normal; font-variant-emoji: normal; font-stretch: normal; line-height: normal;&quot; class=&quot;p1&quot;&gt;&lt;font face=&quot;Helvetica&quot;&gt;+ flightNumber: String&lt;span style=&quot;&quot; class=&quot;Apple-converted-space&quot;&gt;&amp;nbsp;&lt;/span&gt;&lt;/font&gt;&lt;/p&gt;&lt;p style=&quot;margin: 0px; font-variant-numeric: normal; font-variant-east-asian: normal; font-variant-alternates: normal; font-size-adjust: none; font-kerning: auto; font-optical-sizing: auto; font-feature-settings: normal; font-variation-settings: normal; font-variant-position: normal; font-variant-emoji: normal; font-stretch: normal; line-height: normal;&quot; class=&quot;p1&quot;&gt;&lt;font face=&quot;Helvetica&quot;&gt;+ departure: String&lt;/font&gt;&lt;/p&gt;&lt;p style=&quot;margin: 0px; font-variant-numeric: normal; font-variant-east-asian: normal; font-variant-alternates: normal; font-size-adjust: none; font-kerning: auto; font-optical-sizing: auto; font-feature-settings: normal; font-variation-settings: normal; font-variant-position: normal; font-variant-emoji: normal; font-stretch: normal; line-height: normal;&quot; class=&quot;p1&quot;&gt;&lt;font face=&quot;Helvetica&quot;&gt;+ destination: String&amp;nbsp;&lt;/font&gt;&lt;/p&gt;&lt;p style=&quot;margin: 0px; font-variant-numeric: normal; font-variant-east-asian: normal; font-variant-alternates: normal; font-size-adjust: none; font-kerning: auto; font-optical-sizing: auto; font-feature-settings: normal; font-variation-settings: normal; font-variant-position: normal; font-variant-emoji: normal; font-stretch: normal; line-height: normal;&quot; class=&quot;p1&quot;&gt;&lt;font face=&quot;Helvetica&quot;&gt;+ date: Date Time&lt;/font&gt;&lt;/p&gt;" style="text;strokeColor=none;fillColor=none;align=left;verticalAlign=top;spacingLeft=4;spacingRight=4;overflow=hidden;rotatable=0;points=[[0,0.5],[1,0.5]];portConstraint=eastwest;whiteSpace=wrap;html=1;" parent="3Z__f5ttQTV5sjtYZmIr-178" vertex="1">
          <mxGeometry y="26" width="235" height="75" as="geometry" />
        </mxCell>
        <mxCell id="3Z__f5ttQTV5sjtYZmIr-180" value="" style="line;strokeWidth=1;fillColor=none;align=left;verticalAlign=middle;spacingTop=-1;spacingLeft=3;spacingRight=3;rotatable=0;labelPosition=right;points=[];portConstraint=eastwest;strokeColor=inherit;" parent="3Z__f5ttQTV5sjtYZmIr-178" vertex="1">
          <mxGeometry y="101" width="235" height="8" as="geometry" />
        </mxCell>
        <mxCell id="3Z__f5ttQTV5sjtYZmIr-181" value="&lt;div&gt;&lt;span style=&quot;background-color: initial;&quot;&gt;&lt;font color=&quot;#0e0e0e&quot;&gt;+&amp;nbsp;&lt;/font&gt;&lt;/span&gt;&lt;span style=&quot;background-color: initial;&quot;&gt;&lt;font color=&quot;#0e0e0e&quot;&gt;searchFlights(&lt;/font&gt;&lt;/span&gt;&lt;span style=&quot;background-color: initial;&quot;&gt;&lt;font face=&quot;Helvetica&quot;&gt;departure: String, destination: String, date: DateTime&lt;/font&gt;&lt;/span&gt;&lt;span style=&quot;color: rgb(14, 14, 14); background-color: initial;&quot;&gt;): List&amp;lt;Flight&amp;gt;&lt;/span&gt;&lt;br&gt;&lt;/div&gt;&lt;div&gt;&lt;font color=&quot;#0e0e0e&quot;&gt;+ selectFlight(&lt;/font&gt;&lt;span style=&quot;background-color: initial;&quot;&gt;flightNumber: String,&amp;nbsp;&lt;/span&gt;&lt;span style=&quot;background-color: initial;&quot;&gt;destination: String,&amp;nbsp;&lt;/span&gt;&lt;span style=&quot;color: rgb(14, 14, 14); background-color: initial;&quot;&gt;departure: String,&amp;nbsp;&lt;/span&gt;&lt;span style=&quot;background-color: initial;&quot;&gt;date: Date Time&lt;/span&gt;&lt;span style=&quot;background-color: initial; color: rgb(14, 14, 14);&quot;&gt;): Flight&lt;/span&gt;&lt;/div&gt;" style="text;strokeColor=none;fillColor=none;align=left;verticalAlign=top;spacingLeft=4;spacingRight=4;overflow=hidden;rotatable=0;points=[[0,0.5],[1,0.5]];portConstraint=eastwest;whiteSpace=wrap;html=1;" parent="3Z__f5ttQTV5sjtYZmIr-178" vertex="1">
          <mxGeometry y="109" width="235" height="125" as="geometry" />
        </mxCell>
        <mxCell id="3Z__f5ttQTV5sjtYZmIr-182" value="Hotel" style="swimlane;fontStyle=1;align=center;verticalAlign=top;childLayout=stackLayout;horizontal=1;startSize=26;horizontalStack=0;resizeParent=1;resizeParentMax=0;resizeLast=0;collapsible=1;marginBottom=0;whiteSpace=wrap;html=1;" parent="1" vertex="1">
          <mxGeometry x="4855" y="40" width="188" height="226" as="geometry" />
        </mxCell>
        <mxCell id="3Z__f5ttQTV5sjtYZmIr-183" value="&lt;p style=&quot;margin: 0px; font-variant-numeric: normal; font-variant-east-asian: normal; font-variant-alternates: normal; font-size-adjust: none; font-kerning: auto; font-optical-sizing: auto; font-feature-settings: normal; font-variation-settings: normal; font-variant-position: normal; font-variant-emoji: normal; font-stretch: normal; line-height: normal;&quot; class=&quot;p1&quot;&gt;&lt;font face=&quot;Helvetica&quot; style=&quot;&quot;&gt;+ hotelName: String&lt;/font&gt;&lt;/p&gt;&lt;p style=&quot;margin: 0px; font-variant-numeric: normal; font-variant-east-asian: normal; font-variant-alternates: normal; font-size-adjust: none; font-kerning: auto; font-optical-sizing: auto; font-feature-settings: normal; font-variation-settings: normal; font-variant-position: normal; font-variant-emoji: normal; font-stretch: normal; line-height: normal;&quot; class=&quot;p1&quot;&gt;&lt;font face=&quot;Helvetica&quot;&gt;+ address: String&amp;nbsp;&lt;/font&gt;&lt;/p&gt;&lt;p style=&quot;margin: 0px; font-variant-numeric: normal; font-variant-east-asian: normal; font-variant-alternates: normal; font-size-adjust: none; font-kerning: auto; font-optical-sizing: auto; font-feature-settings: normal; font-variation-settings: normal; font-variant-position: normal; font-variant-emoji: normal; font-stretch: normal; line-height: normal;&quot; class=&quot;p1&quot;&gt;&lt;font face=&quot;Helvetica&quot;&gt;+ roomType: String&lt;/font&gt;&lt;/p&gt;&lt;p style=&quot;margin: 0px; font-variant-numeric: normal; font-variant-east-asian: normal; font-variant-alternates: normal; font-size-adjust: none; font-kerning: auto; font-optical-sizing: auto; font-feature-settings: normal; font-variation-settings: normal; font-variant-position: normal; font-variant-emoji: normal; font-stretch: normal; line-height: normal;&quot; class=&quot;p1&quot;&gt;&lt;font face=&quot;Helvetica&quot;&gt;+ checkInTime: DateTime&lt;/font&gt;&lt;/p&gt;&lt;p style=&quot;margin: 0px; font-variant-numeric: normal; font-variant-east-asian: normal; font-variant-alternates: normal; font-size-adjust: none; font-kerning: auto; font-optical-sizing: auto; font-feature-settings: normal; font-variation-settings: normal; font-variant-position: normal; font-variant-emoji: normal; font-stretch: normal; line-height: normal;&quot; class=&quot;p1&quot;&gt;&lt;font face=&quot;Helvetica&quot; style=&quot;&quot;&gt;+ checkOutTime: DateTime&lt;/font&gt;&lt;/p&gt;" style="text;strokeColor=none;fillColor=none;align=left;verticalAlign=top;spacingLeft=4;spacingRight=4;overflow=hidden;rotatable=0;points=[[0,0.5],[1,0.5]];portConstraint=eastwest;whiteSpace=wrap;html=1;" parent="3Z__f5ttQTV5sjtYZmIr-182" vertex="1">
          <mxGeometry y="26" width="188" height="88" as="geometry" />
        </mxCell>
        <mxCell id="3Z__f5ttQTV5sjtYZmIr-184" value="" style="line;strokeWidth=1;fillColor=none;align=left;verticalAlign=middle;spacingTop=-1;spacingLeft=3;spacingRight=3;rotatable=0;labelPosition=right;points=[];portConstraint=eastwest;strokeColor=inherit;" parent="3Z__f5ttQTV5sjtYZmIr-182" vertex="1">
          <mxGeometry y="114" width="188" height="8" as="geometry" />
        </mxCell>
        <mxCell id="3Z__f5ttQTV5sjtYZmIr-185" value="&lt;div&gt;+ searchHotel(location: String, checkInDate: Date, checkOutDate: Date, roomType: String): Hotel[]&amp;nbsp;&lt;/div&gt;&lt;div&gt;+ selectHotel(hotelName: String): Hotel&amp;nbsp;&lt;/div&gt;" style="text;strokeColor=none;fillColor=none;align=left;verticalAlign=top;spacingLeft=4;spacingRight=4;overflow=hidden;rotatable=0;points=[[0,0.5],[1,0.5]];portConstraint=eastwest;whiteSpace=wrap;html=1;" parent="3Z__f5ttQTV5sjtYZmIr-182" vertex="1">
          <mxGeometry y="122" width="188" height="104" as="geometry" />
        </mxCell>
        <mxCell id="3Z__f5ttQTV5sjtYZmIr-186" value="Itinerary" style="swimlane;fontStyle=1;align=center;verticalAlign=top;childLayout=stackLayout;horizontal=1;startSize=26;horizontalStack=0;resizeParent=1;resizeParentMax=0;resizeLast=0;collapsible=1;marginBottom=0;whiteSpace=wrap;html=1;" parent="1" vertex="1">
          <mxGeometry x="4078" y="846" width="238" height="237" as="geometry" />
        </mxCell>
        <mxCell id="3Z__f5ttQTV5sjtYZmIr-187" value="&lt;div&gt;+ itineraryID: String&amp;nbsp;&lt;/div&gt;&lt;div&gt;+ userID: String&amp;nbsp;&lt;/div&gt;&lt;div&gt;+ routeDetails: String&lt;/div&gt;&lt;div&gt;+ status: String&amp;nbsp;&lt;/div&gt;" style="text;strokeColor=none;fillColor=none;align=left;verticalAlign=top;spacingLeft=4;spacingRight=4;overflow=hidden;rotatable=0;points=[[0,0.5],[1,0.5]];portConstraint=eastwest;whiteSpace=wrap;html=1;" parent="3Z__f5ttQTV5sjtYZmIr-186" vertex="1">
          <mxGeometry y="26" width="238" height="68" as="geometry" />
        </mxCell>
        <mxCell id="3Z__f5ttQTV5sjtYZmIr-188" value="" style="line;strokeWidth=1;fillColor=none;align=left;verticalAlign=middle;spacingTop=-1;spacingLeft=3;spacingRight=3;rotatable=0;labelPosition=right;points=[];portConstraint=eastwest;strokeColor=inherit;" parent="3Z__f5ttQTV5sjtYZmIr-186" vertex="1">
          <mxGeometry y="94" width="238" height="8" as="geometry" />
        </mxCell>
        <mxCell id="3Z__f5ttQTV5sjtYZmIr-189" value="&lt;div&gt;+ createItinerary(userID: String, routeDetails: String): Itinerary&lt;/div&gt;&lt;div&gt;+ updateItinerary(itineraryID: String, newDetails: String): Boolean&lt;/div&gt;&lt;div&gt;+ shareItinerary(itineraryID: String): SharingStatus&amp;nbsp;&lt;/div&gt;&lt;div&gt;+ modifyItinerary(itineraryID: String, newDetails: String): Itinerary&lt;/div&gt;" style="text;strokeColor=none;fillColor=none;align=left;verticalAlign=top;spacingLeft=4;spacingRight=4;overflow=hidden;rotatable=0;points=[[0,0.5],[1,0.5]];portConstraint=eastwest;whiteSpace=wrap;html=1;" parent="3Z__f5ttQTV5sjtYZmIr-186" vertex="1">
          <mxGeometry y="102" width="238" height="135" as="geometry" />
        </mxCell>
        <mxCell id="3Z__f5ttQTV5sjtYZmIr-190" value="Payment" style="swimlane;fontStyle=1;align=center;verticalAlign=top;childLayout=stackLayout;horizontal=1;startSize=26;horizontalStack=0;resizeParent=1;resizeParentMax=0;resizeLast=0;collapsible=1;marginBottom=0;whiteSpace=wrap;html=1;" parent="1" vertex="1">
          <mxGeometry x="4017" y="181" width="232" height="217" as="geometry" />
        </mxCell>
        <mxCell id="3Z__f5ttQTV5sjtYZmIr-191" value="&lt;font face=&quot;Helvetica&quot;&gt;+&amp;nbsp;&lt;span style=&quot;color: rgb(14, 14, 14); background-color: initial;&quot;&gt;paymentId: String&lt;/span&gt;&lt;/font&gt;&lt;div&gt;&lt;font face=&quot;Helvetica&quot;&gt;&lt;span style=&quot;color: rgb(14, 14, 14); background-color: initial;&quot;&gt;+&amp;nbsp;&lt;/span&gt;&lt;span style=&quot;color: rgb(14, 14, 14); background-color: initial;&quot;&gt;userId: String&lt;/span&gt;&lt;/font&gt;&lt;/div&gt;&lt;div&gt;&lt;font face=&quot;Helvetica&quot;&gt;&lt;span style=&quot;color: rgb(14, 14, 14); background-color: initial;&quot;&gt;+&amp;nbsp;&lt;/span&gt;&lt;span style=&quot;color: rgb(14, 14, 14); background-color: initial;&quot;&gt;amount: Double&lt;/span&gt;&lt;/font&gt;&lt;/div&gt;&lt;div&gt;&lt;span style=&quot;color: rgb(14, 14, 14); background-color: initial;&quot;&gt;+&lt;font face=&quot;Helvetica&quot;&gt;&amp;nbsp;&lt;/font&gt;&lt;/span&gt;&lt;span style=&quot;font-size: 13px; background-color: initial;&quot;&gt;&lt;font face=&quot;Helvetica&quot;&gt;paymentStatus: String&lt;/font&gt;&lt;/span&gt;&lt;/div&gt;" style="text;strokeColor=none;fillColor=none;align=left;verticalAlign=top;spacingLeft=4;spacingRight=4;overflow=hidden;rotatable=0;points=[[0,0.5],[1,0.5]];portConstraint=eastwest;whiteSpace=wrap;html=1;" parent="3Z__f5ttQTV5sjtYZmIr-190" vertex="1">
          <mxGeometry y="26" width="232" height="70" as="geometry" />
        </mxCell>
        <mxCell id="3Z__f5ttQTV5sjtYZmIr-192" value="" style="line;strokeWidth=1;fillColor=none;align=left;verticalAlign=middle;spacingTop=-1;spacingLeft=3;spacingRight=3;rotatable=0;labelPosition=right;points=[];portConstraint=eastwest;strokeColor=inherit;" parent="3Z__f5ttQTV5sjtYZmIr-190" vertex="1">
          <mxGeometry y="96" width="232" height="8" as="geometry" />
        </mxCell>
        <mxCell id="3Z__f5ttQTV5sjtYZmIr-193" value="&lt;div&gt;+ securePayment(cardID: String, PIN: String, amount: Float): PaymentStatus&lt;/div&gt;&lt;div&gt;+ viewInvoice(paymentID: String): Invoice&lt;/div&gt;&lt;div&gt;+ accessHistory(userID: String): Payment[]&amp;nbsp;&lt;/div&gt;&lt;div&gt;+ securePayment(cardID: String, PIN: String, amount: Float): PaymentStatus&lt;/div&gt;" style="text;strokeColor=none;fillColor=none;align=left;verticalAlign=top;spacingLeft=4;spacingRight=4;overflow=hidden;rotatable=0;points=[[0,0.5],[1,0.5]];portConstraint=eastwest;whiteSpace=wrap;html=1;" parent="3Z__f5ttQTV5sjtYZmIr-190" vertex="1">
          <mxGeometry y="104" width="232" height="113" as="geometry" />
        </mxCell>
        <mxCell id="3Z__f5ttQTV5sjtYZmIr-194" value="" style="endArrow=none;html=1;edgeStyle=orthogonalEdgeStyle;rounded=0;exitX=0.75;exitY=0;exitDx=0;exitDy=0;entryX=0.001;entryY=1.013;entryDx=0;entryDy=0;entryPerimeter=0;" parent="1" source="3Z__f5ttQTV5sjtYZmIr-170" target="3Z__f5ttQTV5sjtYZmIr-175" edge="1">
          <mxGeometry relative="1" as="geometry">
            <mxPoint x="4281" y="616.5" as="sourcePoint" />
            <mxPoint x="4441" y="616.5" as="targetPoint" />
            <Array as="points">
              <mxPoint x="4156" y="424" />
              <mxPoint x="4364" y="424" />
              <mxPoint x="4364" y="277" />
            </Array>
          </mxGeometry>
        </mxCell>
        <mxCell id="3Z__f5ttQTV5sjtYZmIr-195" value="1" style="edgeLabel;resizable=0;html=1;align=left;verticalAlign=bottom;fontFamily=Helvetica;fontSize=13;" parent="3Z__f5ttQTV5sjtYZmIr-194" connectable="0" vertex="1">
          <mxGeometry x="-1" relative="1" as="geometry">
            <mxPoint x="5" y="-4" as="offset" />
          </mxGeometry>
        </mxCell>
        <mxCell id="3Z__f5ttQTV5sjtYZmIr-196" value="&lt;p class=&quot;p1&quot; style=&quot;margin: 0px; font-variant-numeric: normal; font-variant-east-asian: normal; font-variant-alternates: normal; font-size-adjust: none; font-kerning: auto; font-optical-sizing: auto; font-feature-settings: normal; font-variation-settings: normal; font-variant-position: normal; font-variant-emoji: normal; font-stretch: normal; line-height: normal; color: rgb(14, 14, 14); text-align: start; text-wrap-mode: wrap;&quot;&gt;0..*&lt;/p&gt;" style="edgeLabel;resizable=0;html=1;align=right;verticalAlign=bottom;fontFamily=Helvetica;fontSize=13;" parent="3Z__f5ttQTV5sjtYZmIr-194" connectable="0" vertex="1">
          <mxGeometry x="1" relative="1" as="geometry">
            <mxPoint x="421" y="-167" as="offset" />
          </mxGeometry>
        </mxCell>
        <mxCell id="3Z__f5ttQTV5sjtYZmIr-197" value="" style="endArrow=diamondThin;endFill=0;endSize=24;html=1;rounded=0;exitX=0.5;exitY=0;exitDx=0;exitDy=0;" parent="1" source="3Z__f5ttQTV5sjtYZmIr-178" target="3Z__f5ttQTV5sjtYZmIr-177" edge="1">
          <mxGeometry width="160" relative="1" as="geometry">
            <mxPoint x="4255" y="754.5" as="sourcePoint" />
            <mxPoint x="4415" y="754.5" as="targetPoint" />
          </mxGeometry>
        </mxCell>
        <mxCell id="3Z__f5ttQTV5sjtYZmIr-198" value="" style="endArrow=diamondThin;endFill=0;endSize=24;html=1;rounded=0;exitX=0;exitY=0.5;exitDx=0;exitDy=0;entryX=0.123;entryY=0.082;entryDx=0;entryDy=0;entryPerimeter=0;" parent="1" source="3Z__f5ttQTV5sjtYZmIr-183" target="3Z__f5ttQTV5sjtYZmIr-201" edge="1">
          <mxGeometry width="160" relative="1" as="geometry">
            <mxPoint x="4497" y="718.5" as="sourcePoint" />
            <mxPoint x="4657" y="718.5" as="targetPoint" />
          </mxGeometry>
        </mxCell>
        <mxCell id="3Z__f5ttQTV5sjtYZmIr-199" value="0..*" style="text;html=1;align=center;verticalAlign=middle;resizable=0;points=[];autosize=1;strokeColor=none;fillColor=none;fontSize=13;" parent="1" vertex="1">
          <mxGeometry x="4388" y="245" width="38" height="28" as="geometry" />
        </mxCell>
        <mxCell id="3Z__f5ttQTV5sjtYZmIr-200" value="1" style="text;html=1;align=center;verticalAlign=middle;resizable=0;points=[];autosize=1;strokeColor=none;fillColor=none;fontSize=13;" parent="1" vertex="1">
          <mxGeometry x="4635" y="451" width="25" height="28" as="geometry" />
        </mxCell>
        <mxCell id="3Z__f5ttQTV5sjtYZmIr-201" value="1" style="text;html=1;align=center;verticalAlign=middle;resizable=0;points=[];autosize=1;strokeColor=none;fillColor=none;fontSize=13;" parent="1" vertex="1">
          <mxGeometry x="4646" y="235" width="25" height="28" as="geometry" />
        </mxCell>
        <mxCell id="3Z__f5ttQTV5sjtYZmIr-202" value="" style="endArrow=none;html=1;edgeStyle=orthogonalEdgeStyle;rounded=0;exitX=0.5;exitY=0;exitDx=0;exitDy=0;entryX=0.427;entryY=1.004;entryDx=0;entryDy=0;entryPerimeter=0;" parent="1" source="3Z__f5ttQTV5sjtYZmIr-170" target="3Z__f5ttQTV5sjtYZmIr-193" edge="1">
          <mxGeometry relative="1" as="geometry">
            <mxPoint x="4039" y="319" as="sourcePoint" />
            <mxPoint x="4112" y="412" as="targetPoint" />
            <Array as="points">
              <mxPoint x="4116" y="494" />
            </Array>
          </mxGeometry>
        </mxCell>
        <mxCell id="3Z__f5ttQTV5sjtYZmIr-203" value="1" style="edgeLabel;resizable=0;html=1;align=left;verticalAlign=bottom;fontSize=13;" parent="3Z__f5ttQTV5sjtYZmIr-202" connectable="0" vertex="1">
          <mxGeometry x="-1" relative="1" as="geometry" />
        </mxCell>
        <mxCell id="3Z__f5ttQTV5sjtYZmIr-204" value="0..*" style="edgeLabel;resizable=0;html=1;align=right;verticalAlign=bottom;fontSize=13;" parent="3Z__f5ttQTV5sjtYZmIr-202" connectable="0" vertex="1">
          <mxGeometry x="1" relative="1" as="geometry">
            <mxPoint x="-2" y="22" as="offset" />
          </mxGeometry>
        </mxCell>
        <mxCell id="3Z__f5ttQTV5sjtYZmIr-205" value="&lt;p style=&quot;margin:0px;margin-top:4px;text-align:center;&quot;&gt;&lt;b&gt;Notification&lt;/b&gt;&lt;/p&gt;&lt;hr size=&quot;1&quot; style=&quot;border-style:solid;&quot;&gt;&lt;p style=&quot;margin:0px;margin-left:4px;&quot;&gt;+ messageType: String&lt;/p&gt;&lt;p style=&quot;margin:0px;margin-left:4px;&quot;&gt;+ recipient: String&amp;nbsp;&lt;/p&gt;&lt;p style=&quot;margin:0px;margin-left:4px;&quot;&gt;+ messageContent: String&lt;/p&gt;&lt;hr size=&quot;1&quot; style=&quot;border-style:solid;&quot;&gt;&lt;p style=&quot;margin:0px;margin-left:4px;&quot;&gt;+ sendNotification(messageType: String, recipient: String, messageContent: String): NotificationStatus&lt;/p&gt;" style="verticalAlign=top;align=left;overflow=fill;html=1;whiteSpace=wrap;" parent="1" vertex="1">
          <mxGeometry x="4436" y="546" width="246" height="161" as="geometry" />
        </mxCell>
        <mxCell id="3Z__f5ttQTV5sjtYZmIr-206" value="1" style="text;html=1;align=center;verticalAlign=middle;resizable=0;points=[];autosize=1;strokeColor=none;fillColor=none;" parent="1" vertex="1">
          <mxGeometry x="4217" y="546" width="25" height="26" as="geometry" />
        </mxCell>
        <mxCell id="3Z__f5ttQTV5sjtYZmIr-207" value="&lt;p class=&quot;p1&quot; style=&quot;margin: 0px; font-variant-numeric: normal; font-variant-east-asian: normal; font-variant-alternates: normal; font-size-adjust: none; font-kerning: auto; font-optical-sizing: auto; font-feature-settings: normal; font-variation-settings: normal; font-variant-position: normal; font-variant-emoji: normal; font-stretch: normal; line-height: normal; color: rgb(14, 14, 14); text-align: start; text-wrap-mode: wrap;&quot;&gt;0..*&lt;/p&gt;" style="edgeLabel;resizable=0;html=1;align=right;verticalAlign=bottom;fontFamily=Helvetica;fontSize=13;" parent="1" connectable="0" vertex="1">
          <mxGeometry x="4823.001102863603" y="520.9980620148935" as="geometry">
            <mxPoint x="-3" y="88" as="offset" />
          </mxGeometry>
        </mxCell>
        <mxCell id="3Z__f5ttQTV5sjtYZmIr-208" value="&lt;p class=&quot;p1&quot; style=&quot;margin: 0px; font-variant-numeric: normal; font-variant-east-asian: normal; font-variant-alternates: normal; font-size-adjust: none; font-kerning: auto; font-optical-sizing: auto; font-feature-settings: normal; font-variation-settings: normal; font-variant-position: normal; font-variant-emoji: normal; font-stretch: normal; line-height: normal; color: rgb(14, 14, 14); text-align: start; text-wrap-mode: wrap;&quot;&gt;0..*&lt;/p&gt;" style="edgeLabel;resizable=0;html=1;align=right;verticalAlign=bottom;fontFamily=Helvetica;fontSize=13;" parent="1" connectable="0" vertex="1">
          <mxGeometry x="4433.001102863603" y="609.9980620148935" as="geometry" />
        </mxCell>
        <mxCell id="3Z__f5ttQTV5sjtYZmIr-209" style="edgeStyle=orthogonalEdgeStyle;rounded=0;orthogonalLoop=1;jettySize=auto;html=1;exitX=0.5;exitY=0;exitDx=0;exitDy=0;entryX=0.499;entryY=1.002;entryDx=0;entryDy=0;entryPerimeter=0;endArrow=none;endFill=0;" parent="1" source="3Z__f5ttQTV5sjtYZmIr-186" target="3Z__f5ttQTV5sjtYZmIr-173" edge="1">
          <mxGeometry relative="1" as="geometry" />
        </mxCell>
        <mxCell id="3Z__f5ttQTV5sjtYZmIr-210" value="1" style="text;html=1;align=center;verticalAlign=middle;resizable=0;points=[];autosize=1;strokeColor=none;fillColor=none;" parent="1" vertex="1">
          <mxGeometry x="4079" y="740" width="25" height="26" as="geometry" />
        </mxCell>
        <mxCell id="3Z__f5ttQTV5sjtYZmIr-211" value="1" style="text;html=1;align=center;verticalAlign=middle;resizable=0;points=[];autosize=1;strokeColor=none;fillColor=none;" parent="1" vertex="1">
          <mxGeometry x="4163" y="823" width="25" height="26" as="geometry" />
        </mxCell>
        <mxCell id="3Z__f5ttQTV5sjtYZmIr-212" style="edgeStyle=orthogonalEdgeStyle;rounded=0;orthogonalLoop=1;jettySize=auto;html=1;exitX=1;exitY=0.5;exitDx=0;exitDy=0;entryX=0;entryY=0.5;entryDx=0;entryDy=0;endArrow=none;endFill=0;" parent="1" source="3Z__f5ttQTV5sjtYZmIr-191" target="3Z__f5ttQTV5sjtYZmIr-175" edge="1">
          <mxGeometry relative="1" as="geometry" />
        </mxCell>
        <mxCell id="3Z__f5ttQTV5sjtYZmIr-213" value="1" style="text;html=1;align=center;verticalAlign=middle;resizable=0;points=[];autosize=1;strokeColor=none;fillColor=none;" parent="1" vertex="1">
          <mxGeometry x="4244" y="221" width="25" height="26" as="geometry" />
        </mxCell>
        <mxCell id="3Z__f5ttQTV5sjtYZmIr-214" value="1" style="text;html=1;align=center;verticalAlign=middle;resizable=0;points=[];autosize=1;strokeColor=none;fillColor=none;" parent="1" vertex="1">
          <mxGeometry x="4394" y="220" width="25" height="26" as="geometry" />
        </mxCell>
        <mxCell id="3Z__f5ttQTV5sjtYZmIr-215" style="edgeStyle=orthogonalEdgeStyle;rounded=0;orthogonalLoop=1;jettySize=auto;html=1;exitX=0;exitY=0.5;exitDx=0;exitDy=0;entryX=1;entryY=0.5;entryDx=0;entryDy=0;endArrow=none;endFill=0;" parent="1" source="3Z__f5ttQTV5sjtYZmIr-181" target="3Z__f5ttQTV5sjtYZmIr-187" edge="1">
          <mxGeometry relative="1" as="geometry" />
        </mxCell>
        <mxCell id="3Z__f5ttQTV5sjtYZmIr-216" value="1" style="text;html=1;align=center;verticalAlign=middle;resizable=0;points=[];autosize=1;strokeColor=none;fillColor=none;" parent="1" vertex="1">
          <mxGeometry x="4314" y="880" width="25" height="26" as="geometry" />
        </mxCell>
        <mxCell id="3Z__f5ttQTV5sjtYZmIr-217" value="0..*" style="text;html=1;align=center;verticalAlign=middle;resizable=0;points=[];autosize=1;strokeColor=none;fillColor=none;" parent="1" vertex="1">
          <mxGeometry x="4706" y="742.5" width="36" height="26" as="geometry" />
        </mxCell>
        <mxCell id="3Z__f5ttQTV5sjtYZmIr-218" style="edgeStyle=orthogonalEdgeStyle;rounded=0;orthogonalLoop=1;jettySize=auto;html=1;exitX=1;exitY=0.5;exitDx=0;exitDy=0;entryX=1;entryY=0.5;entryDx=0;entryDy=0;endArrow=none;endFill=0;" parent="1" source="3Z__f5ttQTV5sjtYZmIr-185" target="3Z__f5ttQTV5sjtYZmIr-189" edge="1">
          <mxGeometry relative="1" as="geometry">
            <Array as="points">
              <mxPoint x="5043" y="208" />
              <mxPoint x="5221" y="208" />
              <mxPoint x="5221" y="1015" />
            </Array>
          </mxGeometry>
        </mxCell>
        <mxCell id="3Z__f5ttQTV5sjtYZmIr-219" value="&lt;span style=&quot;color: rgba(0, 0, 0, 0); font-family: monospace; font-size: 0px; text-align: start;&quot;&gt;%3CmxGraphModel%3E%3Croot%3E%3CmxCell%20id%3D%220%22%2F%3E%3CmxCell%20id%3D%221%22%20parent%3D%220%22%2F%3E%3CmxCell%20id%3D%222%22%20value%3D%220..*%22%20style%3D%22text%3Bhtml%3D1%3Balign%3Dcenter%3BverticalAlign%3Dmiddle%3Bresizable%3D0%3Bpoints%3D%5B%5D%3Bautosize%3D1%3BstrokeColor%3Dnone%3BfillColor%3Dnone%3B%22%20vertex%3D%221%22%20parent%3D%221%22%3E%3CmxGeometry%20x%3D%22826%22%20y%3D%22686%22%20width%3D%2236%22%20height%3D%2226%22%20as%3D%22geometry%22%2F%3E%3C%2FmxCell%3E%3C%2Froot%3E%3C%2FmxGraphModel%3E&lt;/span&gt;" style="text;html=1;align=center;verticalAlign=middle;resizable=0;points=[];autosize=1;strokeColor=none;fillColor=none;" parent="1" vertex="1">
          <mxGeometry x="4987" y="301" width="18" height="26" as="geometry" />
        </mxCell>
        <mxCell id="3Z__f5ttQTV5sjtYZmIr-220" value="1" style="text;html=1;align=center;verticalAlign=middle;resizable=0;points=[];autosize=1;strokeColor=none;fillColor=none;" parent="1" vertex="1">
          <mxGeometry x="4314" y="992" width="25" height="26" as="geometry" />
        </mxCell>
        <mxCell id="3Z__f5ttQTV5sjtYZmIr-221" value="0..*" style="text;html=1;align=center;verticalAlign=middle;resizable=0;points=[];autosize=1;strokeColor=none;fillColor=none;" parent="1" vertex="1">
          <mxGeometry x="5048" y="177" width="36" height="26" as="geometry" />
        </mxCell>
        <mxCell id="3Z__f5ttQTV5sjtYZmIr-222" style="edgeStyle=orthogonalEdgeStyle;rounded=0;orthogonalLoop=1;jettySize=auto;html=1;exitX=1;exitY=0.5;exitDx=0;exitDy=0;entryX=0;entryY=0.5;entryDx=0;entryDy=0;" parent="1" source="3Z__f5ttQTV5sjtYZmIr-171" target="3Z__f5ttQTV5sjtYZmIr-205" edge="1">
          <mxGeometry relative="1" as="geometry" />
        </mxCell>
        <mxCell id="3Z__f5ttQTV5sjtYZmIr-223" value="Invoice" style="swimlane;fontStyle=1;align=center;verticalAlign=top;childLayout=stackLayout;horizontal=1;startSize=26;horizontalStack=0;resizeParent=1;resizeParentMax=0;resizeLast=0;collapsible=1;marginBottom=0;whiteSpace=wrap;html=1;" parent="1" vertex="1">
          <mxGeometry x="4948" y="384" width="160" height="152" as="geometry" />
        </mxCell>
        <mxCell id="3Z__f5ttQTV5sjtYZmIr-224" value="&lt;font face=&quot;Helvetica&quot;&gt;+ &lt;span style=&quot;color: rgb(14, 14, 14); background-color: initial;&quot;&gt;username: String&lt;/span&gt;&lt;/font&gt;&lt;div&gt;&lt;font face=&quot;Helvetica&quot;&gt;&lt;span style=&quot;color: rgb(14, 14, 14); background-color: initial;&quot;&gt;+&amp;nbsp;&lt;/span&gt;&lt;span style=&quot;color: rgb(14, 14, 14); background-color: initial;&quot;&gt;itineraryId: String&lt;/span&gt;&lt;/font&gt;&lt;/div&gt;&lt;div&gt;&lt;font face=&quot;Helvetica&quot;&gt;&lt;span style=&quot;color: rgb(14, 14, 14); background-color: initial;&quot;&gt;+&amp;nbsp;&lt;/span&gt;&lt;span style=&quot;color: rgb(14, 14, 14); background-color: initial;&quot;&gt;date: Date&lt;/span&gt;&lt;/font&gt;&lt;/div&gt;" style="text;strokeColor=none;fillColor=none;align=left;verticalAlign=top;spacingLeft=4;spacingRight=4;overflow=hidden;rotatable=0;points=[[0,0.5],[1,0.5]];portConstraint=eastwest;whiteSpace=wrap;html=1;" parent="3Z__f5ttQTV5sjtYZmIr-223" vertex="1">
          <mxGeometry y="26" width="160" height="58" as="geometry" />
        </mxCell>
        <mxCell id="3Z__f5ttQTV5sjtYZmIr-225" value="" style="line;strokeWidth=1;fillColor=none;align=left;verticalAlign=middle;spacingTop=-1;spacingLeft=3;spacingRight=3;rotatable=0;labelPosition=right;points=[];portConstraint=eastwest;strokeColor=inherit;" parent="3Z__f5ttQTV5sjtYZmIr-223" vertex="1">
          <mxGeometry y="84" width="160" height="8" as="geometry" />
        </mxCell>
        <mxCell id="3Z__f5ttQTV5sjtYZmIr-226" value="&lt;font face=&quot;Helvetica&quot;&gt;+&amp;nbsp;&lt;span style=&quot;color: rgb(14, 14, 14); background-color: initial;&quot;&gt;generateInvoice(): Invoice&lt;/span&gt;&lt;/font&gt;&lt;div&gt;&lt;font face=&quot;Helvetica&quot;&gt;&lt;span style=&quot;color: rgb(14, 14, 14); background-color: initial;&quot;&gt;+&amp;nbsp;&lt;/span&gt;&lt;span style=&quot;color: rgb(14, 14, 14); background-color: initial;&quot;&gt;displayInvoiceDetails(): String&lt;/span&gt;&lt;/font&gt;&lt;/div&gt;" style="text;strokeColor=none;fillColor=none;align=left;verticalAlign=top;spacingLeft=4;spacingRight=4;overflow=hidden;rotatable=0;points=[[0,0.5],[1,0.5]];portConstraint=eastwest;whiteSpace=wrap;html=1;" parent="3Z__f5ttQTV5sjtYZmIr-223" vertex="1">
          <mxGeometry y="92" width="160" height="60" as="geometry" />
        </mxCell>
        <mxCell id="3Z__f5ttQTV5sjtYZmIr-227" style="edgeStyle=orthogonalEdgeStyle;rounded=0;orthogonalLoop=1;jettySize=auto;html=1;exitX=0.5;exitY=0;exitDx=0;exitDy=0;entryX=0.5;entryY=1.01;entryDx=0;entryDy=0;entryPerimeter=0;" parent="1" source="3Z__f5ttQTV5sjtYZmIr-223" target="3Z__f5ttQTV5sjtYZmIr-185" edge="1">
          <mxGeometry relative="1" as="geometry">
            <Array as="points">
              <mxPoint x="5028" y="325" />
              <mxPoint x="4949" y="325" />
            </Array>
          </mxGeometry>
        </mxCell>
        <mxCell id="3Z__f5ttQTV5sjtYZmIr-228" value="1" style="text;html=1;align=center;verticalAlign=middle;resizable=0;points=[];autosize=1;strokeColor=none;fillColor=none;" parent="1" vertex="1">
          <mxGeometry x="4944" y="263" width="25" height="26" as="geometry" />
        </mxCell>
        <mxCell id="3Z__f5ttQTV5sjtYZmIr-229" value="1" style="text;html=1;align=center;verticalAlign=middle;resizable=0;points=[];autosize=1;strokeColor=none;fillColor=none;" parent="1" vertex="1">
          <mxGeometry x="5030" y="364" width="25" height="26" as="geometry" />
        </mxCell>
        <mxCell id="3Z__f5ttQTV5sjtYZmIr-230" style="edgeStyle=orthogonalEdgeStyle;rounded=0;orthogonalLoop=1;jettySize=auto;html=1;exitX=0.75;exitY=0;exitDx=0;exitDy=0;entryX=0.518;entryY=0.994;entryDx=0;entryDy=0;entryPerimeter=0;" parent="1" source="3Z__f5ttQTV5sjtYZmIr-178" target="3Z__f5ttQTV5sjtYZmIr-226" edge="1">
          <mxGeometry relative="1" as="geometry" />
        </mxCell>
        <mxCell id="3Z__f5ttQTV5sjtYZmIr-231" value="1" style="text;html=1;align=center;verticalAlign=middle;resizable=0;points=[];autosize=1;strokeColor=none;fillColor=none;" parent="1" vertex="1">
          <mxGeometry x="5027" y="530" width="25" height="26" as="geometry" />
        </mxCell>
        <mxCell id="3Z__f5ttQTV5sjtYZmIr-232" value="1" style="text;html=1;align=center;verticalAlign=middle;resizable=0;points=[];autosize=1;strokeColor=none;fillColor=none;" parent="1" vertex="1">
          <mxGeometry x="4919" y="590" width="25" height="26" as="geometry" />
        </mxCell>
        <mxCell id="bFJxI3gGu74i8vC_sXhV-4" value="&lt;span style=&quot;text-align: left;&quot;&gt;有&lt;/span&gt;&lt;div&gt;&lt;span style=&quot;text-align: left;&quot;&gt;源&lt;/span&gt;&lt;/div&gt;&lt;div&gt;&lt;span style=&quot;text-align: left;&quot;&gt;可&lt;/span&gt;&lt;/div&gt;&lt;div&gt;&lt;span style=&quot;text-align: left;&quot;&gt;重&lt;/span&gt;&lt;/div&gt;&lt;div&gt;&lt;span style=&quot;text-align: left;&quot;&gt;构&lt;/span&gt;&lt;/div&gt;&lt;div&gt;&lt;span style=&quot;text-align: left;&quot;&gt;智&lt;/span&gt;&lt;/div&gt;&lt;div&gt;&lt;span style=&quot;text-align: left;&quot;&gt;能&lt;/span&gt;&lt;/div&gt;&lt;div&gt;&lt;span style=&quot;text-align: left;&quot;&gt;表&lt;/span&gt;&lt;/div&gt;&lt;div&gt;&lt;span style=&quot;text-align: left;&quot;&gt;面&lt;/span&gt;&lt;/div&gt;&lt;div&gt;&lt;span style=&quot;text-align: left;&quot;&gt;辅&lt;/span&gt;&lt;/div&gt;&lt;div&gt;&lt;span style=&quot;text-align: left;&quot;&gt;助&lt;/span&gt;&lt;/div&gt;&lt;div&gt;&lt;span style=&quot;text-align: left;&quot;&gt;的&lt;/span&gt;&lt;/div&gt;&lt;div&gt;&lt;span style=&quot;text-align: left;&quot;&gt;MISO&lt;/span&gt;&lt;/div&gt;&lt;div&gt;&lt;span style=&quot;text-align: left;&quot;&gt;集&lt;/span&gt;&lt;/div&gt;&lt;div&gt;&lt;span style=&quot;text-align: left;&quot;&gt;成&lt;/span&gt;&lt;/div&gt;&lt;div&gt;&lt;span style=&quot;text-align: left;&quot;&gt;感&lt;/span&gt;&lt;/div&gt;&lt;div&gt;&lt;span style=&quot;text-align: left;&quot;&gt;知&lt;/span&gt;&lt;/div&gt;&lt;div&gt;&lt;span style=&quot;text-align: left;&quot;&gt;与&lt;/span&gt;&lt;/div&gt;&lt;div&gt;&lt;span style=&quot;text-align: left;&quot;&gt;通&lt;/span&gt;&lt;/div&gt;&lt;div&gt;&lt;span style=&quot;text-align: left;&quot;&gt;信&lt;/span&gt;&lt;/div&gt;&lt;div&gt;&lt;span style=&quot;text-align: left;&quot;&gt;系&lt;/span&gt;&lt;/div&gt;&lt;div&gt;&lt;span style=&quot;text-align: left;&quot;&gt;统&lt;/span&gt;&lt;/div&gt;&lt;div&gt;&lt;span style=&quot;text-align: left;&quot;&gt;的&lt;/span&gt;&lt;/div&gt;&lt;div&gt;&lt;span style=&quot;text-align: left;&quot;&gt;安&lt;/span&gt;&lt;/div&gt;&lt;div&gt;&lt;span style=&quot;text-align: left;&quot;&gt;全&lt;/span&gt;&lt;/div&gt;&lt;div&gt;&lt;span style=&quot;text-align: left;&quot;&gt;运&lt;/span&gt;&lt;/div&gt;&lt;div&gt;&lt;span style=&quot;text-align: left;&quot;&gt;行&lt;/span&gt;&lt;/div&gt;" style="rounded=0;whiteSpace=wrap;html=1;" vertex="1" parent="1">
          <mxGeometry x="1280" y="1181" width="59" height="570" as="geometry" />
        </mxCell>
        <mxCell id="bFJxI3gGu74i8vC_sXhV-5" value="&lt;span style=&quot;text-align: left;&quot;&gt;研&lt;/span&gt;&lt;div&gt;&lt;span style=&quot;text-align: left;&quot;&gt;究&lt;/span&gt;&lt;/div&gt;&lt;div&gt;&lt;span style=&quot;text-align: left;&quot;&gt;背&lt;/span&gt;&lt;/div&gt;&lt;div&gt;&lt;span style=&quot;text-align: left;&quot;&gt;景&lt;/span&gt;&lt;/div&gt;" style="rounded=0;whiteSpace=wrap;html=1;" vertex="1" parent="1">
          <mxGeometry x="1351" y="1182" width="30" height="92" as="geometry" />
        </mxCell>
        <mxCell id="bFJxI3gGu74i8vC_sXhV-6" value="&lt;span style=&quot;text-align: left;&quot;&gt;频谱拥塞与ISAC系统&lt;/span&gt;" style="rounded=0;whiteSpace=wrap;html=1;" vertex="1" parent="1">
          <mxGeometry x="1387" y="1181" width="120" height="32" as="geometry" />
        </mxCell>
        <mxCell id="bFJxI3gGu74i8vC_sXhV-7" value="&lt;span style=&quot;text-align: left;&quot;&gt;RIS在ISAC系统中的应用&lt;/span&gt;" style="rounded=0;whiteSpace=wrap;html=1;" vertex="1" parent="1">
          <mxGeometry x="1387" y="1213" width="120" height="32" as="geometry" />
        </mxCell>
        <mxCell id="bFJxI3gGu74i8vC_sXhV-8" value="&lt;span style=&quot;text-align: left;&quot;&gt;安全威胁与研究动机&lt;/span&gt;" style="rounded=0;whiteSpace=wrap;html=1;" vertex="1" parent="1">
          <mxGeometry x="1387" y="1245" width="120" height="30" as="geometry" />
        </mxCell>
        <mxCell id="bFJxI3gGu74i8vC_sXhV-9" value="&lt;span style=&quot;text-align: left;&quot;&gt;系&lt;/span&gt;&lt;div&gt;&lt;span style=&quot;text-align: left;&quot;&gt;统&lt;/span&gt;&lt;/div&gt;&lt;div&gt;&lt;span style=&quot;text-align: left;&quot;&gt;模&lt;/span&gt;&lt;/div&gt;&lt;div&gt;&lt;span style=&quot;text-align: left;&quot;&gt;型&lt;/span&gt;&lt;/div&gt;" style="rounded=0;whiteSpace=wrap;html=1;" vertex="1" parent="1">
          <mxGeometry x="1350" y="1279" width="32" height="120" as="geometry" />
        </mxCell>
        <mxCell id="bFJxI3gGu74i8vC_sXhV-10" value="&lt;span style=&quot;text-align: left;&quot;&gt;系统架构&lt;/span&gt;" style="rounded=0;whiteSpace=wrap;html=1;" vertex="1" parent="1">
          <mxGeometry x="1387" y="1279" width="120" height="30" as="geometry" />
        </mxCell>
        <mxCell id="bFJxI3gGu74i8vC_sXhV-11" value="&lt;span style=&quot;text-align: left;&quot;&gt;发射信号模型&lt;/span&gt;" style="rounded=0;whiteSpace=wrap;html=1;" vertex="1" parent="1">
          <mxGeometry x="1387" y="1312" width="120" height="29" as="geometry" />
        </mxCell>
        <mxCell id="bFJxI3gGu74i8vC_sXhV-12" value="&lt;span style=&quot;text-align: left;&quot;&gt;雷达接收信号模型&lt;/span&gt;" style="rounded=0;whiteSpace=wrap;html=1;" vertex="1" parent="1">
          <mxGeometry x="1387" y="1341" width="120" height="30" as="geometry" />
        </mxCell>
        <mxCell id="bFJxI3gGu74i8vC_sXhV-13" value="&lt;span style=&quot;text-align: left;&quot;&gt;通信接收信号模型&lt;/span&gt;" style="rounded=0;whiteSpace=wrap;html=1;" vertex="1" parent="1">
          <mxGeometry x="1387" y="1371" width="120" height="29" as="geometry" />
        </mxCell>
        <mxCell id="bFJxI3gGu74i8vC_sXhV-14" value="&lt;span style=&quot;text-align: left;&quot;&gt;问&lt;/span&gt;&lt;div&gt;&lt;span style=&quot;text-align: left;&quot;&gt;题&lt;/span&gt;&lt;/div&gt;&lt;div&gt;&lt;span style=&quot;text-align: left;&quot;&gt;公&lt;/span&gt;&lt;/div&gt;&lt;div&gt;&lt;span style=&quot;text-align: left;&quot;&gt;式&lt;/span&gt;&lt;/div&gt;&lt;div&gt;&lt;span style=&quot;text-align: left;&quot;&gt;化&lt;/span&gt;&lt;/div&gt;&lt;div&gt;&lt;span style=&quot;text-align: left;&quot;&gt;与&lt;/span&gt;&lt;/div&gt;&lt;div&gt;&lt;span style=&quot;text-align: left;&quot;&gt;优&lt;/span&gt;&lt;/div&gt;&lt;div&gt;&lt;span style=&quot;text-align: left;&quot;&gt;化&lt;/span&gt;&lt;/div&gt;&lt;div&gt;&lt;span style=&quot;text-align: left;&quot;&gt;框&lt;/span&gt;&lt;/div&gt;&lt;div&gt;&lt;span style=&quot;text-align: left;&quot;&gt;架&lt;/span&gt;&lt;/div&gt;" style="rounded=0;whiteSpace=wrap;html=1;" vertex="1" parent="1">
          <mxGeometry x="1350" y="1404" width="32" height="154" as="geometry" />
        </mxCell>
        <mxCell id="bFJxI3gGu74i8vC_sXhV-15" value="&lt;span style=&quot;text-align: left;&quot;&gt;问&lt;/span&gt;&lt;div&gt;&lt;span style=&quot;text-align: left;&quot;&gt;题&lt;/span&gt;&lt;/div&gt;&lt;div&gt;&lt;span style=&quot;text-align: left;&quot;&gt;公&lt;/span&gt;&lt;/div&gt;&lt;div&gt;&lt;span style=&quot;text-align: left;&quot;&gt;式&lt;/span&gt;&lt;/div&gt;&lt;div&gt;&lt;span style=&quot;text-align: left;&quot;&gt;化&lt;/span&gt;&lt;/div&gt;" style="rounded=0;whiteSpace=wrap;html=1;" vertex="1" parent="1">
          <mxGeometry x="1388" y="1407" width="33" height="96" as="geometry" />
        </mxCell>
        <mxCell id="bFJxI3gGu74i8vC_sXhV-16" value="&lt;span style=&quot;text-align: left;&quot;&gt;子&lt;/span&gt;&lt;div&gt;&lt;span style=&quot;text-align: left;&quot;&gt;问&lt;/span&gt;&lt;/div&gt;&lt;div&gt;&lt;span style=&quot;text-align: left;&quot;&gt;题&lt;/span&gt;&lt;/div&gt;&lt;div&gt;&lt;span style=&quot;text-align: left;&quot;&gt;优&lt;/span&gt;&lt;/div&gt;&lt;div&gt;&lt;span style=&quot;text-align: left;&quot;&gt;化&lt;/span&gt;&lt;/div&gt;" style="rounded=0;whiteSpace=wrap;html=1;" vertex="1" parent="1">
          <mxGeometry x="1424" y="1407" width="30" height="96" as="geometry" />
        </mxCell>
        <mxCell id="bFJxI3gGu74i8vC_sXhV-17" value="&lt;span style=&quot;text-align: left;&quot;&gt;雷达接收波束成形器优化&lt;/span&gt;" style="rounded=0;whiteSpace=wrap;html=1;" vertex="1" parent="1">
          <mxGeometry x="1456" y="1407" width="154" height="36" as="geometry" />
        </mxCell>
        <mxCell id="bFJxI3gGu74i8vC_sXhV-19" value="&lt;span style=&quot;text-align: left;&quot;&gt;&amp;nbsp;DRC - BF优化&lt;/span&gt;" style="rounded=0;whiteSpace=wrap;html=1;" vertex="1" parent="1">
          <mxGeometry x="1456" y="1441" width="154" height="30" as="geometry" />
        </mxCell>
        <mxCell id="bFJxI3gGu74i8vC_sXhV-20" value="&lt;span style=&quot;text-align: left;&quot;&gt;反射系数矩阵优化&lt;/span&gt;" style="rounded=0;whiteSpace=wrap;html=1;" vertex="1" parent="1">
          <mxGeometry x="1456" y="1471" width="154" height="32" as="geometry" />
        </mxCell>
        <mxCell id="bFJxI3gGu74i8vC_sXhV-21" value="&lt;span style=&quot;text-align: left;&quot;&gt;整体优化框架&lt;/span&gt;" style="rounded=0;whiteSpace=wrap;html=1;" vertex="1" parent="1">
          <mxGeometry x="1388" y="1505" width="222" height="54" as="geometry" />
        </mxCell>
        <mxCell id="bFJxI3gGu74i8vC_sXhV-32" value="&lt;div style=&quot;text-align: left;&quot;&gt;&lt;span style=&quot;background-color: transparent; color: light-dark(rgb(0, 0, 0), rgb(255, 255, 255));&quot;&gt;结&lt;/span&gt;&lt;/div&gt;&lt;div style=&quot;text-align: left;&quot;&gt;&lt;span style=&quot;background-color: transparent; color: light-dark(rgb(0, 0, 0), rgb(255, 255, 255));&quot;&gt;论&lt;/span&gt;&lt;/div&gt;" style="rounded=0;whiteSpace=wrap;html=1;" vertex="1" parent="1">
          <mxGeometry x="1350" y="1659" width="32" height="91" as="geometry" />
        </mxCell>
        <mxCell id="bFJxI3gGu74i8vC_sXhV-33" value="&lt;span style=&quot;text-align: left;&quot;&gt;研究成果&lt;/span&gt;" style="rounded=0;whiteSpace=wrap;html=1;" vertex="1" parent="1">
          <mxGeometry x="1387" y="1660" width="120" height="30" as="geometry" />
        </mxCell>
        <mxCell id="bFJxI3gGu74i8vC_sXhV-34" value="系统优势" style="rounded=0;whiteSpace=wrap;html=1;" vertex="1" parent="1">
          <mxGeometry x="1387" y="1690" width="120" height="30" as="geometry" />
        </mxCell>
        <mxCell id="bFJxI3gGu74i8vC_sXhV-35" value="&lt;span style=&quot;text-align: left;&quot;&gt;与无源RIS的比较&lt;/span&gt;" style="rounded=0;whiteSpace=wrap;html=1;" vertex="1" parent="1">
          <mxGeometry x="1387" y="1720" width="120" height="30" as="geometry" />
        </mxCell>
        <mxCell id="bFJxI3gGu74i8vC_sXhV-36" value="&lt;div style=&quot;text-align: left;&quot;&gt;仿&lt;/div&gt;&lt;div style=&quot;text-align: left;&quot;&gt;真&lt;/div&gt;&lt;div style=&quot;text-align: left;&quot;&gt;结&lt;/div&gt;&lt;div style=&quot;text-align: left;&quot;&gt;果&lt;/div&gt;" style="rounded=0;whiteSpace=wrap;html=1;" vertex="1" parent="1">
          <mxGeometry x="1350" y="1563" width="32" height="91" as="geometry" />
        </mxCell>
        <mxCell id="bFJxI3gGu74i8vC_sXhV-37" value="&lt;span style=&quot;text-align: left;&quot;&gt;算法收敛性&lt;/span&gt;" style="rounded=0;whiteSpace=wrap;html=1;" vertex="1" parent="1">
          <mxGeometry x="1387" y="1564" width="120" height="30" as="geometry" />
        </mxCell>
        <mxCell id="bFJxI3gGu74i8vC_sXhV-38" value="性能对比" style="rounded=0;whiteSpace=wrap;html=1;" vertex="1" parent="1">
          <mxGeometry x="1387" y="1594" width="120" height="30" as="geometry" />
        </mxCell>
        <mxCell id="bFJxI3gGu74i8vC_sXhV-39" value="&lt;span style=&quot;text-align: left;&quot;&gt;参数影响&lt;/span&gt;" style="rounded=0;whiteSpace=wrap;html=1;" vertex="1" parent="1">
          <mxGeometry x="1387" y="1624" width="120" height="30" as="geometry" />
        </mxCell>
      </root>
    </mxGraphModel>
  </diagram>
</mxfile>
